# Blender v2.93.0 OBJ File: ''
# www.blender.org
mtllib Reeds01-10.mtl
o Reeds01-10
v 0.017840 -0.005920 0.013660
v -0.020920 -0.003160 0.005820
v -0.028640 0.098850 0.042190
v 0.021410 0.097250 0.052540
v 0.023410 0.197650 0.102500
v -0.036060 0.199930 0.091100
v -0.044180 0.298840 0.152310
v 0.021690 0.297580 0.164600
v 0.015860 0.388610 0.233020
v -0.050250 0.390940 0.223040
v -0.057020 0.497490 0.323490
v 0.004590 0.496740 0.331640
v -0.007970 0.601900 0.449630
v -0.064380 0.601560 0.444240
v -0.047270 0.701570 0.586030
v 0.010830 -0.009070 0.026100
v -0.019470 -0.005570 -0.003580
v -0.036890 0.111760 0.024150
v 0.001210 0.105580 0.062090
v -0.017960 0.212490 0.118750
v -0.060760 0.222080 0.076110
v -0.094210 0.326030 0.149530
v -0.045920 0.311860 0.196510
v -0.080400 0.395450 0.285280
v -0.130030 0.412200 0.237400
v -0.181070 0.502540 0.365510
v -0.134720 0.484660 0.409800
v -0.198240 0.559810 0.557910
v -0.239810 0.577820 0.519010
v -0.284680 0.627740 0.703750
v -0.002140 -0.004340 0.024740
v -0.020090 -0.002630 0.003400
v -0.039510 0.084480 0.021420
v -0.016000 0.081270 0.052070
v -0.040890 0.163260 0.090500
v -0.068260 0.169300 0.051440
v -0.103830 0.248660 0.096710
v -0.076100 0.239440 0.140270
v -0.119550 0.305160 0.197040
v -0.145440 0.317680 0.152750
v -0.204870 0.388420 0.236210
v -0.183440 0.372890 0.278500
v -0.271610 0.431300 0.390870
v -0.289010 0.451350 0.352900
v -0.351790 0.468640 0.468280
v -0.023050 -0.007640 0.023890
v -0.022170 -0.002960 -0.003970
v -0.054870 0.078510 0.007130
v -0.056810 0.071640 0.041420
v -0.105300 0.142010 0.063780
v -0.102330 0.152880 0.024010
v -0.164690 0.218610 0.049850
v -0.168910 0.203420 0.092130
v -0.241870 0.249460 0.126030
v -0.235600 0.270020 0.080770
v -0.335610 0.315670 0.126290
v -0.343410 0.290340 0.167350
v -0.459000 0.315410 0.209670
v -0.452980 0.337210 0.184800
v -0.580950 0.326000 0.251990
v -0.014460 -0.003630 0.020810
v -0.024200 -0.006020 -0.016550
v -0.076140 0.080090 -0.014230
v -0.067220 0.082510 0.031830
v -0.138230 0.158560 0.044540
v -0.145370 0.157890 -0.008340
v -0.231430 0.224410 0.001710
v -0.226050 0.221470 0.059770
v -0.324670 0.267020 0.071900
v -0.326380 0.273320 0.014860
v -0.457430 0.310440 0.036800
v -0.458770 0.300170 0.084400
v -0.614940 0.303800 0.103990
v -0.611170 0.320120 0.059530
v -0.766470 0.287730 0.100900
v -0.026670 -0.002410 -0.004860
v -0.016610 -0.004600 -0.027510
v -0.043040 0.065990 -0.051580
v -0.055370 0.069470 -0.023830
v -0.093140 0.135100 -0.049160
v -0.078700 0.130810 -0.081050
v -0.123510 0.191130 -0.119260
v -0.141470 0.196510 -0.082350
v -0.194440 0.247130 -0.121180
v -0.172920 0.241200 -0.160530
v -0.246780 0.294520 -0.213630
v -0.268760 0.298590 -0.178260
v -0.351900 0.337650 -0.249130
v -0.333520 0.336660 -0.274900
v -0.437040 0.363620 -0.332570
v -0.017110 -0.003640 -0.003410
v 0.009090 -0.002700 -0.013600
v -0.005390 0.065440 -0.053230
v -0.037440 0.065120 -0.039960
v -0.061540 0.130660 -0.083480
v -0.023370 0.130440 -0.100800
v -0.046030 0.192330 -0.155230
v -0.087440 0.193710 -0.134740
v -0.115110 0.252080 -0.190270
v -0.073530 0.249110 -0.212490
v -0.111680 0.315310 -0.288850
v -0.146800 0.319580 -0.267690
v -0.182560 0.386740 -0.355300
v -0.154710 0.381150 -0.373890
v -0.209760 0.449300 -0.456390
v -0.016660 -0.003000 0.004150
v 0.015130 -0.005060 -0.018910
v 0.011280 0.093190 -0.045430
v -0.024480 0.097630 -0.020260
v -0.034060 0.196560 -0.058810
v 0.006710 0.189860 -0.087050
v -0.000480 0.282230 -0.139580
v -0.046720 0.291730 -0.107760
v -0.060170 0.385050 -0.168130
v -0.013760 0.374030 -0.200740
v -0.034050 0.481690 -0.284010
v -0.075090 0.493150 -0.253520
v -0.093390 0.606170 -0.352930
v -0.057090 0.593440 -0.381880
v -0.097110 0.713570 -0.473150
v -0.013440 -0.004380 -0.017020
v 0.029040 -0.006520 -0.011240
v 0.045120 0.112650 -0.031100
v -0.007390 0.117350 -0.035900
v 0.003640 0.239580 -0.064530
v 0.067100 0.232390 -0.061620
v 0.092170 0.353330 -0.101870
v 0.022380 0.363300 -0.102050
v 0.044930 0.484090 -0.145630
v 0.115800 0.471590 -0.148230
v 0.146970 0.618930 -0.212400
v 0.085610 0.631440 -0.206940
v 0.131740 0.787460 -0.277280
v 0.181580 0.775300 -0.284140
v 0.200510 0.941380 -0.356240
v -0.007560 -0.004340 -0.014900
v 0.011120 -0.002380 0.013900
v 0.039610 0.080140 -0.006540
v 0.017280 0.079180 -0.037790
v 0.055880 0.156880 -0.070170
v 0.083280 0.156560 -0.036040
v 0.137890 0.222870 -0.074630
v 0.104560 0.225700 -0.111540
v 0.164370 0.286340 -0.159650
v 0.200590 0.280380 -0.124900
v 0.284480 0.336230 -0.195140
v 0.249420 0.346160 -0.222860
v 0.349330 0.395630 -0.297780
v 0.382230 0.380630 -0.276530
v 0.472740 0.423500 -0.371410
v 0.002990 -0.004680 -0.017660
v 0.003640 -0.003650 0.014730
v 0.017780 0.101530 0.012150
v 0.017000 0.098130 -0.032680
v 0.051810 0.197510 -0.057890
v 0.053660 0.204810 -0.002680
v 0.111030 0.299580 -0.034380
v 0.107050 0.288740 -0.094030
v 0.178130 0.364220 -0.137020
v 0.185260 0.377490 -0.077780
v 0.296670 0.447530 -0.145590
v 0.286190 0.434080 -0.200860
v 0.437350 0.476200 -0.290130
v 0.453860 0.488310 -0.240100
v 0.570950 0.478780 -0.341320
v 0.008450 -0.004440 -0.019440
v 0.024030 -0.004700 0.006190
v 0.038510 0.089650 0.004900
v 0.021470 0.090310 -0.027770
v 0.049920 0.181050 -0.042570
v 0.067160 0.180980 -0.003700
v 0.112790 0.270860 -0.017210
v 0.095850 0.270050 -0.064150
v 0.154780 0.347240 -0.088270
v 0.169390 0.349310 -0.035720
v 0.256650 0.435420 -0.073610
v 0.247030 0.430400 -0.122850
v 0.362560 0.499000 -0.159250
v 0.367100 0.506010 -0.122160
v 0.494600 0.549090 -0.192290
v 0.036780 -0.007920 -0.003880
v 0.013010 -0.005480 0.028390
v 0.052340 0.098770 0.054870
v 0.081840 0.095380 0.013310
v 0.149980 0.184390 0.043350
v 0.117110 0.189320 0.090580
v 0.204580 0.263180 0.138550
v 0.241050 0.255470 0.085230
v 0.342570 0.299830 0.134700
v 0.304410 0.310110 0.188880
v 0.443340 0.333680 0.257350
v 0.479880 0.319770 0.208170
v 0.631380 0.295410 0.288850
v 0.598990 0.313770 0.330970
v 0.768710 0.239380 0.385720
v 0.015540 -0.002990 -0.008750
v -0.003060 -0.004340 0.018440
v 0.038070 0.070660 0.056310
v 0.061990 0.072610 0.023500
v 0.124070 0.132510 0.067440
v 0.094610 0.130610 0.106690
v 0.165360 0.170220 0.166360
v 0.198330 0.172040 0.123420
v 0.278730 0.186060 0.184490
v 0.244580 0.184340 0.228040
v 0.347190 0.164370 0.305920
v 0.376810 0.166070 0.267780
v 0.475260 0.106680 0.352140
v 0.450620 0.104880 0.383340
v 0.553960 0.012860 0.441840
v 0.025820 -0.006640 0.018150
v -0.015210 -0.003080 0.018370
v -0.011240 0.106750 0.045410
v 0.041780 0.103190 0.044930
v 0.063050 0.208180 0.089920
v 0.000390 0.214280 0.091150
v 0.018730 0.315920 0.155880
v 0.088040 0.308460 0.154900
v 0.113680 0.393640 0.233290
v 0.045130 0.404410 0.235730
v 0.086360 0.494530 0.354410
v 0.149770 0.482560 0.352660
v 0.195070 0.548600 0.498950
v 0.138000 0.562440 0.500850
v 0.223490 0.590440 0.670290
vt 0.041110 0.010300
vt 0.084220 0.011630
vt 0.089480 0.129540
vt 0.033860 0.130290
vt 0.027380 0.252270
vt 0.093290 0.251690
vt 0.096790 0.378070
vt 0.023930 0.380250
vt 0.024420 0.504130
vt 0.097200 0.503850
vt 0.095800 0.661940
vt 0.028200 0.663170
vt 0.031670 0.834290
vt 0.093320 0.833400
vt 0.062520 1.017820
vt 0.166620 0.012430
vt 0.208650 0.012690
vt 0.214980 0.132210
vt 0.161510 0.132420
vt 0.157530 0.254080
vt 0.217990 0.253820
vt 0.221930 0.382080
vt 0.153770 0.381760
vt 0.152070 0.506260
vt 0.222350 0.505980
vt 0.221660 0.664060
vt 0.155860 0.665300
vt 0.159330 0.837320
vt 0.218280 0.835530
vt 0.187480 1.014120
vt 0.544930 0.010230
vt 0.581240 0.010520
vt 0.587800 0.128420
vt 0.537410 0.128650
vt 0.532500 0.250890
vt 0.595010 0.250580
vt 0.597460 0.376950
vt 0.529250 0.377470
vt 0.529080 0.503020
vt 0.597880 0.502730
vt 0.595520 0.660820
vt 0.530560 0.662050
vt 0.532590 0.858460
vt 0.593530 0.858380
vt 0.561600 1.011930
vt 0.917880 0.009300
vt 0.956650 0.010140
vt 0.961320 0.130730
vt 0.913260 0.130950
vt 0.910530 0.252920
vt 0.967330 0.252890
vt 0.970280 0.380340
vt 0.908150 0.380370
vt 0.902750 0.505860
vt 0.971770 0.505040
vt 0.971450 0.663130
vt 0.903850 0.664360
vt 0.914290 0.834950
vt 0.961450 0.834600
vt 0.936550 1.012580
vt 0.290040 0.011710
vt 0.335270 0.011630
vt 0.340530 0.129540
vt 0.285610 0.130290
vt 0.281950 0.252270
vt 0.344340 0.251690
vt 0.346070 0.379130
vt 0.277800 0.378490
vt 0.278640 0.504130
vt 0.345780 0.503850
vt 0.341210 0.661940
vt 0.284190 0.662460
vt 0.284130 0.839580
vt 0.339780 0.838340
vt 0.313560 1.013590
vt 0.668360 0.011720
vt 0.706180 0.011920
vt 0.710940 0.132550
vt 0.664470 0.132510
vt 0.659970 0.253290
vt 0.713560 0.253910
vt 0.718250 0.381880
vt 0.655330 0.381280
vt 0.653440 0.505560
vt 0.722240 0.505270
vt 0.717660 0.664550
vt 0.654040 0.664590
vt 0.663070 0.835320
vt 0.711200 0.835620
vt 0.685170 1.013280
vt 0.415700 0.011400
vt 0.457420 0.011340
vt 0.462680 0.130080
vt 0.411220 0.130830
vt 0.406000 0.252810
vt 0.468160 0.252230
vt 0.471650 0.378610
vt 0.403080 0.379180
vt 0.400360 0.505210
vt 0.470460 0.504390
vt 0.466910 0.663550
vt 0.405750 0.663710
vt 0.411900 0.834300
vt 0.462280 0.833940
vt 0.438990 1.010320
vt 0.791070 0.008730
vt 0.836510 0.010040
vt 0.838350 0.128490
vt 0.787560 0.128170
vt 0.785370 0.250680
vt 0.843240 0.250640
vt 0.847800 0.373800
vt 0.781920 0.374370
vt 0.780270 0.502540
vt 0.847150 0.502260
vt 0.843600 0.660880
vt 0.782980 0.660510
vt 0.784840 0.833240
vt 0.840580 0.833420
vt 0.812460 1.012480
vt 0.415700 0.011400
vt 0.457420 0.011340
vt 0.462680 0.130080
vt 0.411220 0.130830
vt 0.406000 0.252810
vt 0.468160 0.252230
vt 0.471650 0.378610
vt 0.403080 0.379180
vt 0.400360 0.505210
vt 0.470460 0.504390
vt 0.466910 0.663550
vt 0.405750 0.663710
vt 0.411900 0.834300
vt 0.462280 0.833940
vt 0.438990 1.010320
vt 0.791070 0.008730
vt 0.836510 0.010040
vt 0.838350 0.128490
vt 0.787560 0.128170
vt 0.785370 0.250680
vt 0.843240 0.250640
vt 0.847800 0.373800
vt 0.781920 0.374370
vt 0.780270 0.502540
vt 0.847150 0.502260
vt 0.843600 0.660880
vt 0.782980 0.660510
vt 0.784840 0.833240
vt 0.840580 0.833420
vt 0.812460 1.012480
vt 0.544930 0.010230
vt 0.581240 0.010520
vt 0.587800 0.128420
vt 0.537410 0.128650
vt 0.532500 0.250890
vt 0.595010 0.250580
vt 0.597460 0.376950
vt 0.529250 0.377470
vt 0.529080 0.503020
vt 0.597880 0.502730
vt 0.595520 0.660820
vt 0.530560 0.662050
vt 0.532590 0.858460
vt 0.593530 0.858380
vt 0.561600 1.011930
vt 0.668360 0.011720
vt 0.706180 0.011920
vt 0.710940 0.132550
vt 0.664470 0.132510
vt 0.659970 0.253290
vt 0.713560 0.253910
vt 0.718250 0.381880
vt 0.655330 0.381280
vt 0.653440 0.505560
vt 0.722240 0.505270
vt 0.717660 0.664550
vt 0.654040 0.664590
vt 0.663070 0.835320
vt 0.711200 0.835620
vt 0.685170 1.013280
vt 0.166620 0.012430
vt 0.208650 0.012690
vt 0.214980 0.132210
vt 0.161510 0.132420
vt 0.157530 0.254080
vt 0.217990 0.253820
vt 0.221930 0.382080
vt 0.153770 0.381760
vt 0.152070 0.506260
vt 0.222350 0.505980
vt 0.221660 0.664060
vt 0.155860 0.665300
vt 0.159330 0.837320
vt 0.218280 0.835530
vt 0.187480 1.014120
vt 0.415700 0.011400
vt 0.457420 0.011340
vt 0.462680 0.130080
vt 0.411220 0.130830
vt 0.406000 0.252810
vt 0.468160 0.252230
vt 0.471650 0.378610
vt 0.403080 0.379180
vt 0.400360 0.505210
vt 0.470460 0.504390
vt 0.466910 0.663550
vt 0.405750 0.663710
vt 0.411900 0.834300
vt 0.462280 0.833940
vt 0.438990 1.010320
vt 0.041110 0.010300
vt 0.084220 0.011630
vt 0.089480 0.129540
vt 0.033860 0.130290
vt 0.027380 0.252270
vt 0.093290 0.251690
vt 0.096790 0.378070
vt 0.023930 0.380250
vt 0.024420 0.504130
vt 0.097200 0.503850
vt 0.095800 0.661940
vt 0.028200 0.663170
vt 0.031670 0.834290
vt 0.093320 0.833400
vt 0.062520 1.017820
vn 0.2095 0.2943 -0.9325
vn 0.1992 0.3776 -0.9043
vn 0.1991 0.3781 -0.9041
vn 0.1842 0.4596 -0.8688
vn 0.1843 0.4592 -0.8690
vn 0.1647 0.5350 -0.8287
vn 0.1643 0.5362 -0.8280
vn 0.1408 0.6018 -0.7861
vn 0.1408 0.6017 -0.7862
vn 0.1050 0.6736 -0.7316
vn 0.1048 0.6741 -0.7312
vn 0.0588 0.7374 -0.6729
vn 0.0590 0.7371 -0.6732
vn 0.0015 0.7895 -0.6138
vn 0.6988 0.1814 -0.6920
vn 0.6988 0.1814 -0.6919
vn 0.6932 0.3314 -0.6401
vn 0.6931 0.3317 -0.6400
vn 0.6780 0.4664 -0.5681
vn 0.6780 0.4662 -0.5683
vn 0.6566 0.5789 -0.4835
vn 0.6566 0.5787 -0.4837
vn 0.6336 0.6620 -0.4005
vn 0.6337 0.6618 -0.4007
vn 0.6052 0.7363 -0.3027
vn 0.6050 0.7367 -0.3020
vn 0.5784 0.7871 -0.2142
vn 0.5787 0.7867 -0.2150
vn 0.5586 0.8157 -0.1506
vn 0.7544 0.2259 -0.6163
vn 0.7545 0.2259 -0.6162
vn 0.7600 0.3545 -0.5447
vn 0.7600 0.3548 -0.5446
vn 0.7557 0.4738 -0.4522
vn 0.7557 0.4735 -0.4524
vn 0.7445 0.5728 -0.3430
vn 0.7444 0.5731 -0.3426
vn 0.7293 0.6462 -0.2247
vn 0.7293 0.6461 -0.2249
vn 0.7091 0.7015 -0.0707
vn 0.7090 0.7018 -0.0695
vn 0.6885 0.7155 0.1189
vn 0.6885 0.7155 0.1188
vn 0.6801 0.6875 0.2548
vn 0.9543 0.2884 0.0787
vn 0.9543 0.2883 0.0789
vn 0.8959 0.4226 0.1368
vn 0.8957 0.4229 0.1370
vn 0.8168 0.5355 0.2147
vn 0.7246 0.6153 0.3104
vn 0.6326 0.6547 0.4137
vn 0.6332 0.6546 0.4130
vn 0.5272 0.6499 0.5475
vn 0.5264 0.6496 0.5486
vn 0.4372 0.5801 0.6872
vn 0.4374 0.5804 0.6869
vn 0.3818 0.4466 0.8092
vn 0.8612 0.4410 -0.2527
vn 0.7922 0.5817 -0.1847
vn 0.7917 0.5825 -0.1843
vn 0.6940 0.7125 -0.1031
vn 0.6945 0.7120 -0.1035
vn 0.5752 0.8180 -0.0088
vn 0.5759 0.8175 -0.0093
vn 0.4483 0.8891 0.0925
vn 0.4484 0.8890 0.0923
vn 0.2854 0.9305 0.2295
vn 0.2849 0.9306 0.2299
vn 0.1162 0.9132 0.3906
vn 0.1173 0.9135 0.3895
vn -0.0169 0.8362 0.5481
vn 0.8652 0.3595 0.3496
vn 0.8238 0.4774 0.3057
vn 0.8238 0.4774 0.3056
vn 0.7652 0.5865 0.2654
vn 0.7649 0.5869 0.2653
vn 0.6891 0.6870 0.2307
vn 0.6894 0.6867 0.2308
vn 0.6041 0.7696 0.2067
vn 0.6044 0.7693 0.2068
vn 0.4807 0.8557 0.1919
vn 0.4805 0.8557 0.1918
vn 0.3325 0.9221 0.1978
vn 0.3319 0.9222 0.1983
vn 0.1639 0.9588 0.2321
vn 0.3040 0.4759 0.8253
vn 0.3132 0.5562 0.7697
vn 0.3133 0.5566 0.7694
vn 0.3250 0.6277 0.7074
vn 0.3249 0.6274 0.7077
vn 0.3417 0.6852 0.6432
vn 0.3417 0.6854 0.6430
vn 0.3640 0.7280 0.5809
vn 0.3640 0.7278 0.5812
vn 0.4014 0.7619 0.5083
vn 0.4532 0.7755 0.4396
vn 0.4531 0.7755 0.4397
vn 0.5190 0.7658 0.3797
vn 0.5853 0.1756 0.7916
vn 0.5852 0.1756 0.7916
vn 0.5760 0.2789 0.7684
vn 0.5759 0.2787 0.7685
vn 0.5711 0.3693 0.7331
vn 0.5720 0.4403 0.6921
vn 0.5720 0.4406 0.6919
vn 0.5801 0.4936 0.6480
vn 0.5801 0.4935 0.6481
vn 0.6009 0.5315 0.5970
vn 0.6008 0.5315 0.5971
vn 0.6371 0.5407 0.5493
vn 0.6875 0.5224 0.5044
vn -0.1274 0.1266 0.9837
vn -0.0713 0.1970 0.9778
vn -0.0711 0.1972 0.9778
vn -0.0140 0.2554 0.9667
vn -0.0142 0.2552 0.9668
vn 0.0424 0.2978 0.9537
vn 0.0425 0.2979 0.9536
vn 0.0951 0.3241 0.9412
vn 0.0948 0.3240 0.9413
vn 0.1546 0.3366 0.9289
vn 0.1546 0.3367 0.9289
vn 0.2102 0.3303 0.9202
vn 0.2101 0.3303 0.9202
vn 0.2613 0.3162 0.9120
vn -0.8120 0.2898 0.5067
vn -0.8117 0.2898 0.5071
vn -0.7330 0.4505 0.5097
vn -0.7332 0.4501 0.5097
vn -0.6257 0.5919 0.5081
vn -0.6257 0.5918 0.5081
vn -0.4998 0.7009 0.5088
vn -0.4991 0.7014 0.5088
vn -0.3565 0.7783 0.5169
vn -0.3569 0.7781 0.5169
vn -0.1744 0.8217 0.5426
vn -0.1747 0.8217 0.5425
vn 0.0192 0.8051 0.5929
vn 0.0194 0.8050 0.5929
vn 0.2030 0.7180 0.6657
vn -0.9989 0.0424 0.0187
vn -0.9780 0.2085 -0.0010
vn -0.9779 0.2088 -0.0010
vn -0.9274 0.3730 -0.0272
vn -0.9275 0.3728 -0.0271
vn -0.8488 0.5256 -0.0578
vn -0.8484 0.5262 -0.0579
vn -0.7467 0.6591 -0.0897
vn -0.7470 0.6588 -0.0896
vn -0.5904 0.7970 -0.1278
vn -0.5890 0.7979 -0.1281
vn -0.3575 0.9190 -0.1662
vn -0.3576 0.9190 -0.1662
vn -0.1560 0.9707 -0.1826
vn -0.8520 0.0696 0.5189
vn -0.8520 0.0696 0.5188
vn -0.8638 0.2161 0.4552
vn -0.8521 0.3614 0.3787
vn -0.8520 0.3620 0.3783
vn -0.8172 0.5010 0.2849
vn -0.8174 0.5005 0.2852
vn -0.7655 0.6165 0.1842
vn -0.7657 0.6162 0.1845
vn -0.6797 0.7322 0.0436
vn -0.6796 0.7323 0.0435
vn -0.5734 0.8110 -0.1164
vn -0.5732 0.8111 -0.1166
vn -0.4600 0.8408 -0.2854
vn -0.7563 0.3027 -0.5799
vn -0.7564 0.3027 -0.5799
vn -0.6867 0.4985 -0.5291
vn -0.6865 0.4989 -0.5290
vn -0.5679 0.6754 -0.4704
vn -0.5683 0.6750 -0.4705
vn -0.4088 0.8153 -0.4100
vn -0.4093 0.8150 -0.4101
vn -0.2333 0.9038 -0.3587
vn -0.2338 0.9037 -0.3588
vn 0.0016 0.9500 -0.3123
vn 0.0035 0.9501 -0.3121
vn 0.2517 0.9217 -0.2952
vn 0.2492 0.9224 -0.2952
vn 0.4546 0.8269 -0.3312
vn -0.7279 0.4963 -0.4731
vn -0.6176 0.6715 -0.4095
vn -0.6169 0.6724 -0.4091
vn -0.4724 0.8242 -0.3124
vn -0.4730 0.8236 -0.3128
vn -0.3033 0.9339 -0.1895
vn -0.3021 0.9342 -0.1898
vn -0.1218 0.9912 -0.0517
vn -0.1237 0.9910 -0.0512
vn 0.1030 0.9857 0.1336
vn 0.1031 0.9857 0.1336
vn 0.2810 0.9141 0.2925
vn 0.2807 0.9142 0.2923
vn 0.4097 0.8064 0.4264
vn 0.0090 0.1647 -0.9863
vn 0.0089 0.1647 -0.9863
vn 0.0118 0.2956 -0.9552
vn 0.0119 0.2965 -0.9550
vn 0.0266 0.4279 -0.9035
vn 0.0265 0.4272 -0.9038
vn 0.0531 0.5504 -0.8332
vn 0.0537 0.5524 -0.8319
vn 0.0901 0.6571 -0.7484
vn 0.0900 0.6569 -0.7486
vn 0.1494 0.7646 -0.6269
vn 0.1499 0.7653 -0.6259
vn 0.2279 0.8459 -0.4822
vn 0.2275 0.8456 -0.4830
vn 0.3237 0.8889 -0.3243
usemtl Leaves_v1x8.009
s 1
f 1/1/1 2/2/1 3/3/2
f 3/3/2 4/4/3 1/1/1
f 4/4/3 3/3/2 5/5/4
f 6/6/5 5/5/4 3/3/2
f 5/5/4 6/6/5 7/7/6
f 7/7/6 8/8/7 5/5/4
f 8/8/7 7/7/6 9/9/8
f 10/10/9 9/9/8 7/7/6
f 9/9/8 10/10/9 11/11/10
f 11/11/10 12/12/11 9/9/8
f 12/12/11 11/11/10 13/13/12
f 14/14/13 13/13/12 11/11/10
f 13/13/12 14/14/13 15/15/14
f 16/16/15 17/17/16 18/18/17
f 18/18/17 19/19/18 16/16/15
f 19/19/18 18/18/17 20/20/19
f 21/21/20 20/20/19 18/18/17
f 20/20/19 21/21/20 22/22/21
f 22/22/21 23/23/22 20/20/19
f 23/23/22 22/22/21 24/24/23
f 25/25/24 24/24/23 22/22/21
f 24/24/23 25/25/24 26/26/25
f 26/26/25 27/27/26 24/24/23
f 27/27/26 26/26/25 28/28/27
f 29/29/28 28/28/27 26/26/25
f 28/28/27 29/29/28 30/30/29
f 31/31/30 32/32/31 33/33/32
f 33/33/32 34/34/33 31/31/30
f 34/34/33 33/33/32 35/35/34
f 36/36/35 35/35/34 33/33/32
f 35/35/34 36/36/35 37/37/36
f 37/37/36 38/38/37 35/35/34
f 38/38/37 37/37/36 39/39/38
f 40/40/39 39/39/38 37/37/36
f 39/39/38 40/40/39 41/41/40
f 41/41/40 42/42/41 39/39/38
f 42/42/41 41/41/40 43/43/42
f 44/44/43 43/43/42 41/41/40
f 43/43/42 44/44/43 45/45/44
f 46/46/45 47/47/46 48/48/47
f 48/48/47 49/49/48 46/46/45
f 49/49/48 48/48/47 50/50/49
f 51/51/49 50/50/49 48/48/47
f 50/50/49 51/51/49 52/52/50
f 52/52/50 53/53/50 50/50/49
f 53/53/50 52/52/50 54/54/51
f 55/55/52 54/54/51 52/52/50
f 54/54/51 55/55/52 56/56/53
f 56/56/53 57/57/54 54/54/51
f 57/57/54 56/56/53 58/58/55
f 59/59/56 58/58/55 56/56/53
f 58/58/55 59/59/56 60/60/57
f 61/61/58 62/62/58 63/63/59
f 63/63/59 64/64/60 61/61/58
f 64/64/60 63/63/59 65/65/61
f 66/66/62 65/65/61 63/63/59
f 65/65/61 66/66/62 67/67/63
f 67/67/63 68/68/64 65/65/61
f 68/68/64 67/67/63 69/69/65
f 70/70/66 69/69/65 67/67/63
f 69/69/65 70/70/66 71/71/67
f 71/71/67 72/72/68 69/69/65
f 72/72/68 71/71/67 73/73/69
f 74/74/70 73/73/69 71/71/67
f 73/73/69 74/74/70 75/75/71
f 76/76/72 77/77/72 78/78/73
f 78/78/73 79/79/74 76/76/72
f 79/79/74 78/78/73 80/80/75
f 81/81/76 80/80/75 78/78/73
f 80/80/75 81/81/76 82/82/77
f 82/82/77 83/83/78 80/80/75
f 83/83/78 82/82/77 84/84/79
f 85/85/80 84/84/79 82/82/77
f 84/84/79 85/85/80 86/86/81
f 86/86/81 87/87/82 84/84/79
f 87/87/82 86/86/81 88/88/83
f 89/89/84 88/88/83 86/86/81
f 88/88/83 89/89/84 90/90/85
f 91/91/86 92/92/86 93/93/87
f 93/93/87 94/94/88 91/91/86
f 94/94/88 93/93/87 95/95/89
f 96/96/90 95/95/89 93/93/87
f 95/95/89 96/96/90 97/97/91
f 97/97/91 98/98/92 95/95/89
f 98/98/92 97/97/91 99/99/93
f 100/100/94 99/99/93 97/97/91
f 99/99/93 100/100/94 101/101/95
f 101/101/95 102/102/95 99/99/93
f 102/102/95 101/101/95 103/103/96
f 104/104/97 103/103/96 101/101/95
f 103/103/96 104/104/97 105/105/98
f 106/106/99 107/107/100 108/108/101
f 108/108/101 109/109/102 106/106/99
f 109/109/102 108/108/101 110/110/103
f 111/111/103 110/110/103 108/108/101
f 110/110/103 111/111/103 112/112/104
f 112/112/104 113/113/105 110/110/103
f 113/113/105 112/112/104 114/114/106
f 115/115/107 114/114/106 112/112/104
f 114/114/106 115/115/107 116/116/108
f 116/116/108 117/117/109 114/114/106
f 117/117/109 116/116/108 118/118/110
f 119/119/110 118/118/110 116/116/108
f 118/118/110 119/119/110 120/120/111
f 121/121/112 122/122/112 123/123/113
f 123/123/113 124/124/114 121/121/112
f 124/124/114 123/123/113 125/125/115
f 126/126/116 125/125/115 123/123/113
f 125/125/115 126/126/116 127/127/117
f 127/127/117 128/128/118 125/125/115
f 128/128/118 127/127/117 129/129/119
f 130/130/120 129/129/119 127/127/117
f 129/129/119 130/130/120 131/131/121
f 131/131/121 132/132/122 129/129/119
f 132/132/122 131/131/121 133/133/123
f 134/134/124 133/133/123 131/131/121
f 133/133/123 134/134/124 135/135/125
f 136/136/126 137/137/127 138/138/128
f 138/138/128 139/139/129 136/136/126
f 139/139/129 138/138/128 140/140/130
f 141/141/131 140/140/130 138/138/128
f 140/140/130 141/141/131 142/142/132
f 142/142/132 143/143/133 140/140/130
f 143/143/133 142/142/132 144/144/134
f 145/145/135 144/144/134 142/142/132
f 144/144/134 145/145/135 146/146/136
f 146/146/136 147/147/137 144/144/134
f 147/147/137 146/146/136 148/148/138
f 149/149/139 148/148/138 146/146/136
f 148/148/138 149/149/139 150/150/140
f 151/151/141 152/152/141 153/153/142
f 153/153/142 154/154/143 151/151/141
f 154/154/143 153/153/142 155/155/144
f 156/156/145 155/155/144 153/153/142
f 155/155/144 156/156/145 157/157/146
f 157/157/146 158/158/147 155/155/144
f 158/158/147 157/157/146 159/159/148
f 160/160/149 159/159/148 157/157/146
f 159/159/148 160/160/149 161/161/150
f 161/161/150 162/162/151 159/159/148
f 162/162/151 161/161/150 163/163/152
f 164/164/153 163/163/152 161/161/150
f 163/163/152 164/164/153 165/165/154
f 166/166/155 167/167/156 168/168/157
f 168/168/157 169/169/157 166/166/155
f 169/169/157 168/168/157 170/170/158
f 171/171/159 170/170/158 168/168/157
f 170/170/158 171/171/159 172/172/160
f 172/172/160 173/173/161 170/170/158
f 173/173/161 172/172/160 174/174/162
f 175/175/163 174/174/162 172/172/160
f 174/174/162 175/175/163 176/176/164
f 176/176/164 177/177/165 174/174/162
f 177/177/165 176/176/164 178/178/166
f 179/179/167 178/178/166 176/176/164
f 178/178/166 179/179/167 180/180/168
f 181/181/169 182/182/170 183/183/171
f 183/183/171 184/184/172 181/181/169
f 184/184/172 183/183/171 185/185/173
f 186/186/174 185/185/173 183/183/171
f 185/185/173 186/186/174 187/187/175
f 187/187/175 188/188/176 185/185/173
f 188/188/176 187/187/175 189/189/177
f 190/190/178 189/189/177 187/187/175
f 189/189/177 190/190/178 191/191/179
f 191/191/179 192/192/180 189/189/177
f 192/192/180 191/191/179 193/193/181
f 194/194/182 193/193/181 191/191/179
f 193/193/181 194/194/182 195/195/183
f 196/196/184 197/197/184 198/198/185
f 198/198/185 199/199/186 196/196/184
f 199/199/186 198/198/185 200/200/187
f 201/201/188 200/200/187 198/198/185
f 200/200/187 201/201/188 202/202/189
f 202/202/189 203/203/190 200/200/187
f 203/203/190 202/202/189 204/204/191
f 205/205/192 204/204/191 202/202/189
f 204/204/191 205/205/192 206/206/193
f 206/206/193 207/207/194 204/204/191
f 207/207/194 206/206/193 208/208/195
f 209/209/196 208/208/195 206/206/193
f 208/208/195 209/209/196 210/210/197
f 211/211/198 212/212/199 213/213/200
f 213/213/200 214/214/201 211/211/198
f 214/214/201 213/213/200 215/215/202
f 216/216/203 215/215/202 213/213/200
f 215/215/202 216/216/203 217/217/204
f 217/217/204 218/218/205 215/215/202
f 218/218/205 217/217/204 219/219/206
f 220/220/207 219/219/206 217/217/204
f 219/219/206 220/220/207 221/221/208
f 221/221/208 222/222/209 219/219/206
f 222/222/209 221/221/208 223/223/210
f 224/224/211 223/223/210 221/221/208
f 223/223/210 224/224/211 225/225/212
