# Blender v2.93.0 OBJ File: ''
# www.blender.org
mtllib Reeds01-03.mtl
o Reeds01-03
v 0.007830 -0.008780 0.020960
v -0.017790 -0.005460 -0.009560
v -0.063050 0.102940 0.031890
v -0.030010 0.100660 0.068760
v -0.078210 0.202240 0.124860
v -0.119290 0.203870 0.083150
v -0.183810 0.299160 0.148030
v -0.136750 0.299360 0.191510
v -0.198170 0.386530 0.265700
v -0.252120 0.383080 0.219410
v -0.343390 0.477910 0.318600
v -0.288610 0.485540 0.360940
v -0.399780 0.579430 0.464340
v -0.439580 0.570840 0.437840
v -0.529720 0.664430 0.571530
v 0.013550 -0.004430 0.013270
v -0.020680 -0.005360 -0.009180
v -0.044340 0.102990 0.004600
v -0.001020 0.106970 0.034540
v -0.023550 0.217770 0.061600
v -0.074690 0.212720 0.025900
v -0.111740 0.323460 0.053430
v -0.055530 0.331200 0.092950
v -0.093410 0.438570 0.124440
v -0.150630 0.431510 0.086370
v -0.201680 0.565310 0.132170
v -0.147780 0.574120 0.165800
v -0.207540 0.718880 0.211850
v -0.258230 0.709270 0.184270
v -0.295810 0.868560 0.251790
v -0.026350 -0.007490 0.015280
v -0.011080 -0.005460 -0.013810
v -0.023590 0.096580 -0.017280
v -0.041340 0.094170 0.019380
v -0.066030 0.194290 0.022380
v -0.046520 0.198220 -0.021520
v -0.080340 0.301710 -0.023140
v -0.100280 0.296650 0.025420
v -0.140980 0.395180 0.030970
v -0.119830 0.400780 -0.023410
v -0.175070 0.524240 -0.021800
v -0.194770 0.518600 0.031840
v -0.252940 0.651410 0.025370
v -0.239900 0.655990 -0.012200
v -0.311650 0.790600 0.009480
v -0.009190 -0.007780 0.021080
v -0.000460 -0.003460 -0.021100
v -0.045050 0.100890 -0.021230
v -0.058020 0.093510 0.029170
v -0.128060 0.185850 0.038340
v -0.111940 0.197820 -0.017870
v -0.200130 0.284120 -0.010690
v -0.217520 0.266570 0.049570
v -0.318040 0.332890 0.057520
v -0.300430 0.352800 -0.000760
v -0.442030 0.417110 0.016460
v -0.456310 0.397460 0.065060
v -0.623180 0.443560 0.080100
v -0.610200 0.464870 0.033230
v -0.787820 0.481180 0.070970
v -0.035100 -0.005700 0.003640
v -0.017650 -0.005330 -0.028230
v -0.039010 0.107500 -0.043720
v -0.062100 0.106490 -0.005530
v -0.114460 0.208230 -0.026430
v -0.085910 0.211540 -0.069130
v -0.157100 0.305270 -0.108110
v -0.193340 0.298260 -0.060360
v -0.286540 0.363810 -0.104520
v -0.243810 0.375780 -0.153310
v -0.380370 0.430930 -0.212980
v -0.421200 0.412310 -0.172320
v -0.570340 0.421310 -0.255590
v -0.540670 0.442430 -0.281870
v -0.718190 0.391030 -0.345990
v -0.031990 -0.008940 -0.012150
v 0.011230 -0.001800 -0.023760
v -0.018260 0.097700 -0.081410
v -0.070640 0.088100 -0.067520
v -0.117570 0.175500 -0.138140
v -0.058540 0.188720 -0.153900
v -0.110280 0.268290 -0.241110
v -0.173710 0.250260 -0.223390
v -0.230780 0.308770 -0.319520
v -0.168880 0.329180 -0.335670
v -0.253420 0.379640 -0.464720
v -0.304700 0.358380 -0.452070
v -0.397580 0.376580 -0.606950
v -0.349610 0.402390 -0.617700
v -0.466450 0.374880 -0.767210
v -0.016250 -0.006240 -0.014170
v 0.007640 -0.002510 -0.013820
v -0.000310 0.063630 -0.049560
v -0.029740 0.058120 -0.050870
v -0.046070 0.112180 -0.101290
v -0.011810 0.120860 -0.099480
v -0.029400 0.167200 -0.163170
v -0.066110 0.155280 -0.165230
v -0.089840 0.182550 -0.236140
v -0.049980 0.198290 -0.233640
v -0.079490 0.216920 -0.329880
v -0.117000 0.198260 -0.331890
v -0.142190 0.194350 -0.437710
v -0.117590 0.209650 -0.437480
v -0.163130 0.172850 -0.547040
v -0.014680 -0.010400 -0.032060
v 0.019490 -0.004800 -0.011940
v 0.027890 0.114310 -0.048930
v -0.013220 0.107020 -0.075760
v -0.008460 0.220330 -0.129780
v 0.038300 0.231410 -0.096170
v 0.047070 0.348210 -0.157680
v -0.001390 0.333130 -0.196880
v 0.005020 0.437120 -0.274760
v 0.055110 0.456840 -0.228030
v 0.064410 0.585650 -0.330550
v 0.021130 0.561670 -0.379800
v 0.045390 0.689020 -0.498130
v 0.070120 0.710140 -0.462150
v 0.073990 0.817800 -0.622920
v -0.005210 -0.000290 -0.020570
v 0.028160 -0.006340 -0.020900
v 0.048450 0.071520 -0.056070
v 0.011420 0.079210 -0.058400
v 0.033710 0.155020 -0.105480
v 0.075590 0.146440 -0.099590
v 0.105750 0.217530 -0.149010
v 0.058630 0.226330 -0.159730
v 0.088410 0.295110 -0.220630
v 0.135550 0.288480 -0.205730
v 0.172240 0.372550 -0.280580
v 0.130750 0.374900 -0.298450
v 0.177680 0.459710 -0.385450
v 0.213440 0.461770 -0.364320
v 0.241570 0.550760 -0.463480
v 0.030780 -0.010130 -0.018230
v 0.018520 -0.002280 0.012960
v 0.070480 0.092100 0.012040
v 0.083370 0.082830 -0.027550
v 0.150440 0.166460 -0.036800
v 0.138100 0.178010 0.010670
v 0.222260 0.255440 0.005130
v 0.233290 0.242410 -0.047260
v 0.325250 0.304980 -0.061020
v 0.314320 0.319640 -0.002550
v 0.440760 0.385870 -0.015310
v 0.450430 0.370520 -0.072530
v 0.592720 0.427400 -0.077770
v 0.586760 0.439700 -0.038280
v 0.745020 0.477800 -0.074510
v -0.007180 -0.001900 -0.010750
v 0.004980 -0.004160 0.012280
v 0.047920 0.068510 0.003960
v 0.032970 0.071410 -0.028960
v 0.083830 0.140880 -0.048560
v 0.100750 0.137990 -0.006960
v 0.161590 0.203520 -0.023980
v 0.144360 0.206190 -0.069890
v 0.210970 0.264530 -0.090750
v 0.227980 0.262130 -0.044300
v 0.317720 0.327030 -0.074010
v 0.302050 0.330140 -0.117950
v 0.421480 0.400440 -0.153470
v 0.437930 0.396180 -0.113030
v 0.526360 0.446130 -0.164400
v 0.039010 -0.007400 -0.000480
v 0.012210 -0.007130 0.031240
v 0.014410 0.110890 0.039900
v 0.047790 0.110660 -0.001030
v 0.067670 0.228890 0.006560
v 0.030050 0.229570 0.052940
v 0.056020 0.352350 0.073260
v 0.098960 0.350370 0.021440
v 0.136630 0.465990 0.042730
v 0.090730 0.468350 0.094750
v 0.143350 0.613180 0.125630
v 0.189370 0.610280 0.079750
v 0.252710 0.763350 0.123290
v 0.207780 0.767500 0.160250
v 0.300320 0.922720 0.183160
v 0.015390 -0.001970 -0.013720
v -0.005720 -0.007400 0.022510
v 0.038460 0.093190 0.071110
v 0.065660 0.100610 0.027250
v 0.124350 0.198820 0.075140
v 0.090830 0.189900 0.127720
v 0.151870 0.283830 0.189770
v 0.189340 0.293980 0.132160
v 0.257910 0.383840 0.192880
v 0.219320 0.372760 0.251440
v 0.309420 0.480750 0.331130
v 0.342510 0.490910 0.279730
v 0.434860 0.603580 0.374980
v 0.408170 0.593970 0.417420
v 0.519680 0.715140 0.490920
v 0.021980 -0.006870 0.023300
v -0.018070 -0.002940 0.012960
v -0.018320 0.107160 0.044650
v 0.033720 0.102040 0.056430
v 0.049050 0.200240 0.117770
v -0.012810 0.208950 0.106470
v -0.003020 0.295610 0.195090
v 0.065630 0.284820 0.205910
v 0.080690 0.346090 0.308550
v 0.012350 0.359460 0.301870
v 0.035990 0.407020 0.452520
v 0.099470 0.393500 0.456920
v 0.121760 0.406260 0.627430
v 0.064110 0.419820 0.625910
v 0.120840 0.388220 0.813790
v 0.020240 -0.008740 0.012040
v -0.020290 -0.000880 -0.001110
v -0.018970 0.110770 0.040090
v 0.032450 0.101010 0.059710
v 0.045230 0.207350 0.118680
v -0.014560 0.221620 0.094010
v -0.008090 0.330210 0.161030
v 0.056960 0.312990 0.190230
v 0.066300 0.409060 0.267870
v 0.002410 0.430260 0.239530
v 0.018890 0.543510 0.352870
v 0.077540 0.521880 0.379400
v 0.092450 0.627010 0.514450
v 0.039330 0.649020 0.491750
v 0.087290 0.729750 0.665370
vt 0.917880 0.009300
vt 0.956650 0.010140
vt 0.961320 0.130730
vt 0.913260 0.130950
vt 0.910530 0.252920
vt 0.967330 0.252890
vt 0.970280 0.380340
vt 0.908150 0.380370
vt 0.902750 0.505860
vt 0.971770 0.505040
vt 0.971450 0.663130
vt 0.903850 0.664360
vt 0.914290 0.834950
vt 0.961450 0.834600
vt 0.936550 1.012580
vt 0.041110 0.010300
vt 0.084220 0.011630
vt 0.089480 0.129540
vt 0.033860 0.130290
vt 0.027380 0.252270
vt 0.093290 0.251690
vt 0.096790 0.378070
vt 0.023930 0.380250
vt 0.024420 0.504130
vt 0.097200 0.503850
vt 0.095800 0.661940
vt 0.028200 0.663170
vt 0.031670 0.834290
vt 0.093320 0.833400
vt 0.062520 1.017820
vt 0.917880 0.009300
vt 0.956650 0.010140
vt 0.961320 0.130730
vt 0.913260 0.130950
vt 0.910530 0.252920
vt 0.967330 0.252890
vt 0.970280 0.380340
vt 0.908150 0.380370
vt 0.902750 0.505860
vt 0.971770 0.505040
vt 0.971450 0.663130
vt 0.903850 0.664360
vt 0.914290 0.834950
vt 0.961450 0.834600
vt 0.936550 1.012580
vt 0.290040 0.011710
vt 0.335270 0.011630
vt 0.340530 0.129540
vt 0.285610 0.130290
vt 0.281950 0.252270
vt 0.344340 0.251690
vt 0.346070 0.379130
vt 0.277800 0.378490
vt 0.278640 0.504130
vt 0.345780 0.503850
vt 0.341210 0.661940
vt 0.284190 0.662460
vt 0.284130 0.839580
vt 0.339780 0.838340
vt 0.313560 1.013590
vt 0.668360 0.011720
vt 0.706180 0.011920
vt 0.710940 0.132550
vt 0.664470 0.132510
vt 0.659970 0.253290
vt 0.713560 0.253910
vt 0.718250 0.381880
vt 0.655330 0.381280
vt 0.653440 0.505560
vt 0.722240 0.505270
vt 0.717660 0.664550
vt 0.654040 0.664590
vt 0.663070 0.835320
vt 0.711200 0.835620
vt 0.685170 1.013280
vt 0.290040 0.011710
vt 0.335270 0.011630
vt 0.340530 0.129540
vt 0.285610 0.130290
vt 0.281950 0.252270
vt 0.344340 0.251690
vt 0.346070 0.379130
vt 0.277800 0.378490
vt 0.278640 0.504130
vt 0.345780 0.503850
vt 0.341210 0.661940
vt 0.284190 0.662460
vt 0.284130 0.839580
vt 0.339780 0.838340
vt 0.313560 1.013590
vt 0.917880 0.009300
vt 0.956650 0.010140
vt 0.961320 0.130730
vt 0.913260 0.130950
vt 0.910530 0.252920
vt 0.967330 0.252890
vt 0.970280 0.380340
vt 0.908150 0.380370
vt 0.902750 0.505860
vt 0.971770 0.505040
vt 0.971450 0.663130
vt 0.903850 0.664360
vt 0.914290 0.834950
vt 0.961450 0.834600
vt 0.936550 1.012580
vt 0.917880 0.009300
vt 0.956650 0.010140
vt 0.961320 0.130730
vt 0.913260 0.130950
vt 0.910530 0.252920
vt 0.967330 0.252890
vt 0.970280 0.380340
vt 0.908150 0.380370
vt 0.902750 0.505860
vt 0.971770 0.505040
vt 0.971450 0.663130
vt 0.903850 0.664360
vt 0.914290 0.834950
vt 0.961450 0.834600
vt 0.936550 1.012580
vt 0.791070 0.008730
vt 0.836510 0.010040
vt 0.838350 0.128490
vt 0.787560 0.128170
vt 0.785370 0.250680
vt 0.843240 0.250640
vt 0.847800 0.373800
vt 0.781920 0.374370
vt 0.780270 0.502540
vt 0.847150 0.502260
vt 0.843600 0.660880
vt 0.782980 0.660510
vt 0.784840 0.833240
vt 0.840580 0.833420
vt 0.812460 1.012480
vt 0.917880 0.009300
vt 0.956650 0.010140
vt 0.961320 0.130730
vt 0.913260 0.130950
vt 0.910530 0.252920
vt 0.967330 0.252890
vt 0.970280 0.380340
vt 0.908150 0.380370
vt 0.902750 0.505860
vt 0.971770 0.505040
vt 0.971450 0.663130
vt 0.903850 0.664360
vt 0.914290 0.834950
vt 0.961450 0.834600
vt 0.936550 1.012580
vt 0.544930 0.010230
vt 0.581240 0.010520
vt 0.587800 0.128420
vt 0.537410 0.128650
vt 0.532500 0.250890
vt 0.595010 0.250580
vt 0.597460 0.376950
vt 0.529250 0.377470
vt 0.529080 0.503020
vt 0.597880 0.502730
vt 0.595520 0.660820
vt 0.530560 0.662050
vt 0.532590 0.858460
vt 0.593530 0.858380
vt 0.561600 1.011930
vt 0.166620 0.012430
vt 0.208650 0.012690
vt 0.214980 0.132210
vt 0.161510 0.132420
vt 0.157530 0.254080
vt 0.217990 0.253820
vt 0.221930 0.382080
vt 0.153770 0.381760
vt 0.152070 0.506260
vt 0.222350 0.505980
vt 0.221660 0.664060
vt 0.155860 0.665300
vt 0.159330 0.837320
vt 0.218280 0.835530
vt 0.187480 1.014120
vt 0.415700 0.011400
vt 0.457420 0.011340
vt 0.462680 0.130080
vt 0.411220 0.130830
vt 0.406000 0.252810
vt 0.468160 0.252230
vt 0.471650 0.378610
vt 0.403080 0.379180
vt 0.400360 0.505210
vt 0.470460 0.504390
vt 0.466910 0.663550
vt 0.405750 0.663710
vt 0.411900 0.834300
vt 0.462280 0.833940
vt 0.438990 1.010320
vt 0.041110 0.010300
vt 0.084220 0.011630
vt 0.089480 0.129540
vt 0.033860 0.130290
vt 0.027380 0.252270
vt 0.093290 0.251690
vt 0.096790 0.378070
vt 0.023930 0.380250
vt 0.024420 0.504130
vt 0.097200 0.503850
vt 0.095800 0.661940
vt 0.028200 0.663170
vt 0.031670 0.834290
vt 0.093320 0.833400
vt 0.062520 1.017820
vt 0.041110 0.010300
vt 0.084220 0.011630
vt 0.089480 0.129540
vt 0.033860 0.130290
vt 0.027380 0.252270
vt 0.093290 0.251690
vt 0.096790 0.378070
vt 0.023930 0.380250
vt 0.024420 0.504130
vt 0.097200 0.503850
vt 0.095800 0.661940
vt 0.028200 0.663170
vt 0.031670 0.834290
vt 0.093320 0.833400
vt 0.062520 1.017820
vn 0.7138 0.4308 -0.5523
vn 0.7136 0.4308 -0.5525
vn 0.6483 0.5288 -0.5479
vn 0.6481 0.5290 -0.5478
vn 0.5730 0.6167 -0.5398
vn 0.5730 0.6166 -0.5399
vn 0.4901 0.6893 -0.5336
vn 0.4900 0.6893 -0.5336
vn 0.4065 0.7428 -0.5320
vn 0.4071 0.7425 -0.5320
vn 0.3024 0.7859 -0.5393
vn 0.3016 0.7862 -0.5394
vn 0.1927 0.8048 -0.5615
vn 0.1929 0.8048 -0.5614
vn 0.0861 0.7951 -0.6004
vn 0.5356 0.1827 -0.8245
vn 0.5358 0.1827 -0.8243
vn 0.5337 0.2541 -0.8066
vn 0.5336 0.2545 -0.8065
vn 0.5214 0.3154 -0.7929
vn 0.5215 0.3152 -0.7929
vn 0.5011 0.3614 -0.7863
vn 0.5007 0.3621 -0.7863
vn 0.4747 0.3906 -0.7887
vn 0.4748 0.3905 -0.7887
vn 0.4344 0.4037 -0.8052
vn 0.4340 0.4036 -0.8054
vn 0.3778 0.3972 -0.8363
vn 0.3782 0.3973 -0.8362
vn 0.2977 0.3766 -0.8772
vn 0.8809 0.0722 0.4677
vn 0.8810 0.0722 0.4675
vn 0.8849 0.1555 0.4390
vn 0.8849 0.1557 0.4389
vn 0.8812 0.2287 0.4138
vn 0.8744 0.2866 0.3915
vn 0.8744 0.2866 0.3914
vn 0.8689 0.3248 0.3734
vn 0.8690 0.3246 0.3736
vn 0.8677 0.3463 0.3566
vn 0.8678 0.3463 0.3565
vn 0.8699 0.3520 0.3456
vn 0.8728 0.3475 0.3427
vn 0.9232 0.3128 0.2232
vn 0.8454 0.4520 0.2846
vn 0.8449 0.4527 0.2849
vn 0.7465 0.5714 0.3411
vn 0.7468 0.5710 0.3409
vn 0.6393 0.6623 0.3908
vn 0.6398 0.6619 0.3906
vn 0.5375 0.7250 0.4306
vn 0.5377 0.7249 0.4306
vn 0.4225 0.7762 0.4680
vn 0.4222 0.7763 0.4680
vn 0.3173 0.8103 0.4927
vn 0.3179 0.8101 0.4926
vn 0.2421 0.8319 0.4993
vn 0.8703 0.1201 0.4777
vn 0.8050 0.3258 0.4959
vn 0.6904 0.5164 0.5066
vn 0.6898 0.5172 0.5067
vn 0.5245 0.6786 0.5142
vn 0.5253 0.6780 0.5142
vn 0.3335 0.7851 0.5219
vn 0.3341 0.7849 0.5219
vn 0.0664 0.8393 0.5396
vn 0.0661 0.8393 0.5396
vn -0.2104 0.7886 0.5779
vn -0.2108 0.7884 0.5779
vn -0.4360 0.6258 0.6468
vn 0.1557 0.4704 0.8686
vn 0.1095 0.5740 0.8115
vn 0.1092 0.5746 0.8111
vn 0.0444 0.6704 0.7406
vn 0.0447 0.6701 0.7409
vn -0.0375 0.7492 0.6613
vn -0.0370 0.7488 0.6617
vn -0.1297 0.8037 0.5807
vn -0.1296 0.8037 0.5808
vn -0.2586 0.8378 0.4808
vn -0.2590 0.8378 0.4806
vn -0.4124 0.8280 0.3799
vn -0.4114 0.8282 0.3805
vn -0.5622 0.7696 0.3028
vn -0.0731 0.3832 0.9208
vn -0.0734 0.3832 0.9208
vn -0.1387 0.5361 0.8326
vn -0.1389 0.5365 0.8324
vn -0.2137 0.6635 0.7170
vn -0.2960 0.7550 0.5850
vn -0.2961 0.7551 0.5850
vn -0.3781 0.8067 0.4542
vn -0.3775 0.8065 0.4551
vn -0.4779 0.8250 0.3016
vn -0.4787 0.8250 0.3005
vn -0.5793 0.7990 0.1612
vn -0.5791 0.7991 0.1614
vn -0.6708 0.7393 0.0589
vn -0.5212 0.2581 0.8134
vn -0.5215 0.2581 0.8133
vn -0.5572 0.3188 0.7668
vn -0.5573 0.3189 0.7667
vn -0.5995 0.3723 0.7085
vn -0.5995 0.3724 0.7085
vn -0.6494 0.4136 0.6382
vn -0.6494 0.4135 0.6382
vn -0.7031 0.4376 0.5605
vn -0.7027 0.4375 0.5611
vn -0.7739 0.4419 0.4536
vn -0.7745 0.4418 0.4527
vn -0.8510 0.4105 0.3275
vn -0.8509 0.4106 0.3278
vn -0.9223 0.3357 0.1913
vn 0.0743 0.3573 0.9310
vn 0.0737 0.3574 0.9310
vn 0.0380 0.4509 0.8917
vn 0.0380 0.4507 0.8919
vn -0.0075 0.5356 0.8445
vn -0.0074 0.5355 0.8445
vn -0.0646 0.6053 0.7934
vn -0.0650 0.6056 0.7931
vn -0.1382 0.6601 0.7383
vn -0.1380 0.6600 0.7385
vn -0.2490 0.6988 0.6706
vn -0.2487 0.6987 0.6707
vn -0.3912 0.7043 0.5924
vn -0.3913 0.7043 0.5924
vn -0.5516 0.6717 0.4945
vn -0.8321 0.3635 -0.4188
vn -0.8323 0.3635 -0.4185
vn -0.7896 0.4878 -0.3724
vn -0.7894 0.4880 -0.3723
vn -0.7254 0.5994 -0.3384
vn -0.6491 0.6919 -0.3162
vn -0.6490 0.6919 -0.3162
vn -0.5727 0.7600 -0.3072
vn -0.5733 0.7596 -0.3072
vn -0.4848 0.8165 -0.3135
vn -0.4841 0.8169 -0.3136
vn -0.4070 0.8471 -0.3418
vn -0.4071 0.8470 -0.3418
vn -0.3522 0.8492 -0.3936
vn -0.7693 0.4530 0.4506
vn -0.7693 0.4530 0.4504
vn -0.7431 0.5467 0.3859
vn -0.7430 0.5469 0.3857
vn -0.7018 0.6315 0.3298
vn -0.7019 0.6313 0.3300
vn -0.6516 0.7023 0.2866
vn -0.6514 0.7026 0.2865
vn -0.5980 0.7584 0.2595
vn -0.5981 0.7583 0.2595
vn -0.5300 0.8104 0.2496
vn -0.5295 0.8108 0.2496
vn -0.4481 0.8503 0.2761
vn -0.3882 0.8618 0.3265
vn -0.7638 0.0037 -0.6454
vn -0.7705 0.1018 -0.6292
vn -0.7705 0.1020 -0.6292
vn -0.7605 0.1919 -0.6203
vn -0.7606 0.1918 -0.6203
vn -0.7360 0.2674 -0.6219
vn -0.7361 0.2673 -0.6219
vn -0.7017 0.3218 -0.6357
vn -0.7016 0.3216 -0.6358
vn -0.6449 0.3638 -0.6722
vn -0.6444 0.3640 -0.6725
vn -0.5663 0.3743 -0.7343
vn -0.5672 0.3744 -0.7335
vn -0.4602 0.3588 -0.8121
vn -0.7870 0.4810 -0.3864
vn -0.7469 0.5530 -0.3692
vn -0.7467 0.5534 -0.3691
vn -0.7093 0.6135 -0.3471
vn -0.7095 0.6133 -0.3472
vn -0.6792 0.6585 -0.3240
vn -0.6792 0.6587 -0.3239
vn -0.6597 0.6881 -0.3022
vn -0.6598 0.6880 -0.3023
vn -0.6522 0.7050 -0.2786
vn -0.6632 0.7033 -0.2562
vn -0.6631 0.7033 -0.2562
vn -0.6893 0.6866 -0.2310
vn 0.2611 0.1476 -0.9540
vn 0.2607 0.1476 -0.9541
vn 0.2413 0.3534 -0.9038
vn 0.2413 0.3546 -0.9033
vn 0.2318 0.5440 -0.8064
vn 0.2318 0.5431 -0.8070
vn 0.2309 0.6999 -0.6759
vn 0.2309 0.7022 -0.6735
vn 0.2367 0.8148 -0.5293
vn 0.2367 0.8145 -0.5296
vn 0.2509 0.9053 -0.3429
vn 0.2511 0.9057 -0.3415
vn 0.2723 0.9496 -0.1553
vn 0.2722 0.9495 -0.1562
vn 0.2995 0.9540 0.0105
vn 0.3460 0.2942 -0.8909
vn 0.3465 0.2941 -0.8908
vn 0.3914 0.3516 -0.8504
vn 0.3917 0.3520 -0.8501
vn 0.4311 0.4086 -0.8045
vn 0.4309 0.4083 -0.8047
vn 0.4645 0.4625 -0.7553
vn 0.4650 0.4634 -0.7544
vn 0.4907 0.5128 -0.7045
vn 0.4906 0.5126 -0.7046
vn 0.5138 0.5719 -0.6394
vn 0.5140 0.5724 -0.6389
vn 0.5272 0.6334 -0.5664
vn 0.5272 0.6331 -0.5668
vn 0.5282 0.6970 -0.4850
usemtl Leaves_v1x8.002
s 1
f 1/1/1 2/2/2 3/3/3
f 3/3/3 4/4/4 1/1/1
f 4/4/4 3/3/3 5/5/5
f 6/6/6 5/5/5 3/3/3
f 5/5/5 6/6/6 7/7/7
f 7/7/7 8/8/8 5/5/5
f 8/8/8 7/7/7 9/9/9
f 10/10/10 9/9/9 7/7/7
f 9/9/9 10/10/10 11/11/11
f 11/11/11 12/12/12 9/9/9
f 12/12/12 11/11/11 13/13/13
f 14/14/14 13/13/13 11/11/11
f 13/13/13 14/14/14 15/15/15
f 16/16/16 17/17/17 18/18/18
f 18/18/18 19/19/19 16/16/16
f 19/19/19 18/18/18 20/20/20
f 21/21/21 20/20/20 18/18/18
f 20/20/20 21/21/21 22/22/22
f 22/22/22 23/23/23 20/20/20
f 23/23/23 22/22/22 24/24/24
f 25/25/25 24/24/24 22/22/22
f 24/24/24 25/25/25 26/26/26
f 26/26/26 27/27/27 24/24/24
f 27/27/27 26/26/26 28/28/28
f 29/29/29 28/28/28 26/26/26
f 28/28/28 29/29/29 30/30/30
f 31/31/31 32/32/32 33/33/33
f 33/33/33 34/34/34 31/31/31
f 34/34/34 33/33/33 35/35/35
f 36/36/35 35/35/35 33/33/33
f 35/35/35 36/36/35 37/37/36
f 37/37/36 38/38/37 35/35/35
f 38/38/37 37/37/36 39/39/38
f 40/40/39 39/39/38 37/37/36
f 39/39/38 40/40/39 41/41/40
f 41/41/40 42/42/41 39/39/38
f 42/42/41 41/41/40 43/43/42
f 44/44/42 43/43/42 41/41/40
f 43/43/42 44/44/42 45/45/43
f 46/46/44 47/47/44 48/48/45
f 48/48/45 49/49/46 46/46/44
f 49/49/46 48/48/45 50/50/47
f 51/51/48 50/50/47 48/48/45
f 50/50/47 51/51/48 52/52/49
f 52/52/49 53/53/50 50/50/47
f 53/53/50 52/52/49 54/54/51
f 55/55/52 54/54/51 52/52/49
f 54/54/51 55/55/52 56/56/53
f 56/56/53 57/57/54 54/54/51
f 57/57/54 56/56/53 58/58/55
f 59/59/56 58/58/55 56/56/53
f 58/58/55 59/59/56 60/60/57
f 61/61/58 62/62/58 63/63/59
f 63/63/59 64/64/59 61/61/58
f 64/64/59 63/63/59 65/65/60
f 66/66/61 65/65/60 63/63/59
f 65/65/60 66/66/61 67/67/62
f 67/67/62 68/68/63 65/65/60
f 68/68/63 67/67/62 69/69/64
f 70/70/65 69/69/64 67/67/62
f 69/69/64 70/70/65 71/71/66
f 71/71/66 72/72/67 69/69/64
f 72/72/67 71/71/66 73/73/68
f 74/74/69 73/73/68 71/71/66
f 73/73/68 74/74/69 75/75/70
f 76/76/71 77/77/71 78/78/72
f 78/78/72 79/79/73 76/76/71
f 79/79/73 78/78/72 80/80/74
f 81/81/75 80/80/74 78/78/72
f 80/80/74 81/81/75 82/82/76
f 82/82/76 83/83/77 80/80/74
f 83/83/77 82/82/76 84/84/78
f 85/85/79 84/84/78 82/82/76
f 84/84/78 85/85/79 86/86/80
f 86/86/80 87/87/81 84/84/78
f 87/87/81 86/86/80 88/88/82
f 89/89/83 88/88/82 86/86/80
f 88/88/82 89/89/83 90/90/84
f 91/91/85 92/92/86 93/93/87
f 93/93/87 94/94/88 91/91/85
f 94/94/88 93/93/87 95/95/89
f 96/96/89 95/95/89 93/93/87
f 95/95/89 96/96/89 97/97/90
f 97/97/90 98/98/91 95/95/89
f 98/98/91 97/97/90 99/99/92
f 100/100/93 99/99/92 97/97/90
f 99/99/92 100/100/93 101/101/94
f 101/101/94 102/102/95 99/99/92
f 102/102/95 101/101/94 103/103/96
f 104/104/97 103/103/96 101/101/94
f 103/103/96 104/104/97 105/105/98
f 106/106/99 107/107/100 108/108/101
f 108/108/101 109/109/102 106/106/99
f 109/109/102 108/108/101 110/110/103
f 111/111/104 110/110/103 108/108/101
f 110/110/103 111/111/104 112/112/105
f 112/112/105 113/113/106 110/110/103
f 113/113/106 112/112/105 114/114/107
f 115/115/108 114/114/107 112/112/105
f 114/114/107 115/115/108 116/116/109
f 116/116/109 117/117/110 114/114/107
f 117/117/110 116/116/109 118/118/111
f 119/119/112 118/118/111 116/116/109
f 118/118/111 119/119/112 120/120/113
f 121/121/114 122/122/115 123/123/116
f 123/123/116 124/124/117 121/121/114
f 124/124/117 123/123/116 125/125/118
f 126/126/119 125/125/118 123/123/116
f 125/125/118 126/126/119 127/127/120
f 127/127/120 128/128/121 125/125/118
f 128/128/121 127/127/120 129/129/122
f 130/130/123 129/129/122 127/127/120
f 129/129/122 130/130/123 131/131/124
f 131/131/124 132/132/125 129/129/122
f 132/132/125 131/131/124 133/133/126
f 134/134/127 133/133/126 131/131/124
f 133/133/126 134/134/127 135/135/128
f 136/136/129 137/137/130 138/138/131
f 138/138/131 139/139/132 136/136/129
f 139/139/132 138/138/131 140/140/133
f 141/141/133 140/140/133 138/138/131
f 140/140/133 141/141/133 142/142/134
f 142/142/134 143/143/135 140/140/133
f 143/143/135 142/142/134 144/144/136
f 145/145/137 144/144/136 142/142/134
f 144/144/136 145/145/137 146/146/138
f 146/146/138 147/147/139 144/144/136
f 147/147/139 146/146/138 148/148/140
f 149/149/141 148/148/140 146/146/138
f 148/148/140 149/149/141 150/150/142
f 151/151/143 152/152/144 153/153/145
f 153/153/145 154/154/146 151/151/143
f 154/154/146 153/153/145 155/155/147
f 156/156/148 155/155/147 153/153/145
f 155/155/147 156/156/148 157/157/149
f 157/157/149 158/158/150 155/155/147
f 158/158/150 157/157/149 159/159/151
f 160/160/152 159/159/151 157/157/149
f 159/159/151 160/160/152 161/161/153
f 161/161/153 162/162/154 159/159/151
f 162/162/154 161/161/153 163/163/155
f 164/164/155 163/163/155 161/161/153
f 163/163/155 164/164/155 165/165/156
f 166/166/157 167/167/157 168/168/158
f 168/168/158 169/169/159 166/166/157
f 169/169/159 168/168/158 170/170/160
f 171/171/161 170/170/160 168/168/158
f 170/170/160 171/171/161 172/172/162
f 172/172/162 173/173/163 170/170/160
f 173/173/163 172/172/162 174/174/164
f 175/175/165 174/174/164 172/172/162
f 174/174/164 175/175/165 176/176/166
f 176/176/166 177/177/167 174/174/164
f 177/177/167 176/176/166 178/178/168
f 179/179/169 178/178/168 176/176/166
f 178/178/168 179/179/169 180/180/170
f 181/181/171 182/182/171 183/183/172
f 183/183/172 184/184/173 181/181/171
f 184/184/173 183/183/172 185/185/174
f 186/186/175 185/185/174 183/183/172
f 185/185/174 186/186/175 187/187/176
f 187/187/176 188/188/177 185/185/174
f 188/188/177 187/187/176 189/189/178
f 190/190/179 189/189/178 187/187/176
f 189/189/178 190/190/179 191/191/180
f 191/191/180 192/192/180 189/189/178
f 192/192/180 191/191/180 193/193/181
f 194/194/182 193/193/181 191/191/180
f 193/193/181 194/194/182 195/195/183
f 196/196/184 197/197/185 198/198/186
f 198/198/186 199/199/187 196/196/184
f 199/199/187 198/198/186 200/200/188
f 201/201/189 200/200/188 198/198/186
f 200/200/188 201/201/189 202/202/190
f 202/202/190 203/203/191 200/200/188
f 203/203/191 202/202/190 204/204/192
f 205/205/193 204/204/192 202/202/190
f 204/204/192 205/205/193 206/206/194
f 206/206/194 207/207/195 204/204/192
f 207/207/195 206/206/194 208/208/196
f 209/209/197 208/208/196 206/206/194
f 208/208/196 209/209/197 210/210/198
f 211/211/199 212/212/200 213/213/201
f 213/213/201 214/214/202 211/211/199
f 214/214/202 213/213/201 215/215/203
f 216/216/204 215/215/203 213/213/201
f 215/215/203 216/216/204 217/217/205
f 217/217/205 218/218/206 215/215/203
f 218/218/206 217/217/205 219/219/207
f 220/220/208 219/219/207 217/217/205
f 219/219/207 220/220/208 221/221/209
f 221/221/209 222/222/210 219/219/207
f 222/222/210 221/221/209 223/223/211
f 224/224/212 223/223/211 221/221/209
f 223/223/211 224/224/212 225/225/213
