# Blender v2.93.0 OBJ File: ''
# www.blender.org
mtllib Reeds01-07.mtl
o Reeds01-07
v 0.017430 -0.005000 -0.002120
v -0.017250 -0.005770 0.004820
v -0.024100 0.105830 0.018150
v 0.018330 0.107790 0.008930
v 0.017770 0.219400 0.028880
v -0.030800 0.216580 0.041050
v -0.041090 0.331020 0.074790
v 0.015110 0.335980 0.058020
v 0.008550 0.447190 0.093140
v -0.051520 0.439130 0.114610
v -0.057480 0.577160 0.170460
v -0.004380 0.586840 0.145590
v -0.026460 0.733020 0.211080
v -0.063560 0.723830 0.234760
v -0.057710 0.880200 0.291640
v 0.000010 -0.004890 0.025700
v -0.017920 -0.003370 -0.010320
v -0.027280 0.101330 -0.003860
v -0.005270 0.099860 0.035330
v -0.021650 0.205060 0.054330
v -0.049080 0.206870 0.011090
v -0.080170 0.309500 0.035490
v -0.046290 0.307860 0.082990
v -0.079980 0.410630 0.118280
v -0.117320 0.412010 0.072310
v -0.168730 0.533200 0.126850
v -0.131560 0.532660 0.165590
v -0.192920 0.662080 0.223270
v -0.229960 0.660680 0.190650
v -0.277730 0.792470 0.272190
v 0.006800 -0.007800 0.016320
v -0.009810 -0.005190 -0.012810
v -0.035200 0.094730 0.007140
v -0.015690 0.090780 0.043760
v -0.055890 0.178200 0.086650
v -0.078710 0.185200 0.043600
v -0.138070 0.262680 0.099330
v -0.112650 0.252930 0.145730
v -0.178060 0.306650 0.217070
v -0.207090 0.318850 0.166220
v -0.304360 0.359960 0.263080
v -0.273940 0.347090 0.311460
v -0.387980 0.357120 0.413130
v -0.411640 0.365710 0.381040
v -0.514630 0.332980 0.512880
v -0.018460 -0.005820 0.027550
v -0.026210 -0.005450 -0.012500
v -0.044670 0.099520 -0.010570
v -0.037080 0.098320 0.038370
v -0.083630 0.195830 0.058290
v -0.090150 0.199720 0.002550
v -0.162820 0.287380 0.027560
v -0.157240 0.278890 0.088100
v -0.251050 0.338140 0.120260
v -0.253970 0.350090 0.061240
v -0.388260 0.389080 0.114600
v -0.387470 0.373710 0.163110
v -0.546980 0.354560 0.218490
v -0.546790 0.376100 0.174350
v -0.695090 0.297620 0.248310
v -0.025490 -0.005630 0.016840
v -0.015760 -0.003960 -0.022830
v -0.070700 0.097910 -0.036030
v -0.083780 0.095410 0.012600
v -0.164060 0.183780 0.005700
v -0.147350 0.188850 -0.052650
v -0.245320 0.264090 -0.070410
v -0.264900 0.255770 -0.006700
v -0.379500 0.304300 -0.021540
v -0.358280 0.316180 -0.085740
v -0.514750 0.346090 -0.105100
v -0.533220 0.331100 -0.050330
v -0.702600 0.314280 -0.082330
v -0.687650 0.331240 -0.125760
v -0.864760 0.261130 -0.131080
v -0.027340 -0.007700 0.004460
v -0.000650 -0.004740 -0.023130
v -0.041090 0.091330 -0.057700
v -0.075220 0.086670 -0.022890
v -0.142010 0.165270 -0.064510
v -0.103520 0.172310 -0.103670
v -0.185020 0.235070 -0.163640
v -0.227630 0.224540 -0.119370
v -0.320230 0.256960 -0.181350
v -0.276520 0.270140 -0.226560
v -0.401230 0.277060 -0.310890
v -0.441630 0.261380 -0.269110
v -0.571910 0.220960 -0.362740
v -0.537140 0.238710 -0.399900
v -0.683910 0.149910 -0.468700
v -0.028820 -0.007510 -0.008730
v 0.010310 -0.002320 -0.017840
v -0.010380 0.105220 -0.055540
v -0.058720 0.097870 -0.045250
v -0.097770 0.198000 -0.094170
v -0.039650 0.209340 -0.105800
v -0.079840 0.308000 -0.168580
v -0.143530 0.292780 -0.156760
v -0.195850 0.376430 -0.229490
v -0.131270 0.394740 -0.240380
v -0.206840 0.486930 -0.343490
v -0.261930 0.467250 -0.334700
v -0.341280 0.542990 -0.460190
v -0.297070 0.562240 -0.466400
v -0.412700 0.605200 -0.601690
v -0.026450 -0.007100 -0.015630
v 0.016790 -0.002830 -0.020120
v 0.008860 0.109530 -0.060950
v -0.047220 0.104630 -0.058290
v -0.071540 0.211300 -0.115690
v -0.005330 0.219970 -0.115950
v -0.024320 0.327540 -0.183910
v -0.097190 0.315820 -0.188150
v -0.120780 0.410690 -0.267200
v -0.049380 0.427570 -0.260430
v -0.086050 0.544760 -0.365990
v -0.150650 0.525130 -0.377460
v -0.185470 0.641140 -0.503130
v -0.129400 0.664020 -0.488140
v -0.201150 0.774530 -0.632650
v -0.008630 -0.006420 -0.032800
v 0.019590 -0.002220 -0.015090
v 0.030010 0.078730 -0.048040
v -0.003580 0.072540 -0.070320
v 0.004880 0.147210 -0.120250
v 0.042010 0.156540 -0.094190
v 0.055080 0.230300 -0.153340
v 0.015940 0.216620 -0.182310
v 0.031860 0.278980 -0.249990
v 0.068160 0.294980 -0.219990
v 0.084110 0.366250 -0.314890
v 0.056270 0.349160 -0.341600
v 0.082460 0.415430 -0.454380
v 0.105190 0.436150 -0.426960
v 0.119080 0.486470 -0.555280
v 0.000220 -0.007520 -0.031250
v 0.021080 0.000950 -0.001380
v 0.047110 0.086040 -0.042670
v 0.025180 0.075200 -0.076530
v 0.058460 0.150790 -0.133280
v 0.081790 0.165740 -0.094630
v 0.121920 0.236380 -0.156860
v 0.097530 0.216110 -0.200730
v 0.143750 0.272980 -0.276970
v 0.166200 0.297610 -0.233430
v 0.224840 0.357010 -0.338130
v 0.207310 0.330020 -0.375630
v 0.280640 0.375460 -0.490880
v 0.293120 0.404620 -0.458620
v 0.363230 0.423250 -0.601440
v 0.009550 -0.002190 -0.023120
v 0.029340 -0.004070 -0.006720
v 0.060420 0.071250 -0.025270
v 0.034540 0.073850 -0.049810
v 0.070950 0.145660 -0.083300
v 0.100870 0.143590 -0.050590
v 0.147480 0.211910 -0.085210
v 0.117710 0.212090 -0.123390
v 0.172020 0.269880 -0.166430
v 0.198990 0.272790 -0.125820
v 0.269340 0.339150 -0.184430
v 0.248580 0.332170 -0.225060
v 0.350910 0.394210 -0.302520
v 0.365230 0.407700 -0.264130
v 0.438970 0.442090 -0.348590
v 0.028660 -0.004140 -0.010730
v 0.023950 -0.004090 0.018780
v 0.068730 0.079320 0.030130
v 0.073940 0.079770 -0.006210
v 0.127990 0.158400 -0.000730
v 0.122440 0.158050 0.041250
v 0.186050 0.235600 0.055670
v 0.193000 0.235930 0.006450
v 0.261870 0.305890 0.016460
v 0.252730 0.305710 0.070050
v 0.345640 0.390680 0.081890
v 0.355900 0.389050 0.032710
v 0.460120 0.473260 0.057510
v 0.450410 0.476800 0.094100
v 0.567020 0.560570 0.092940
v 0.008900 -0.001540 -0.010100
v 0.003680 -0.004580 0.017420
v 0.039860 0.059660 0.038770
v 0.047560 0.065630 0.003780
v 0.094380 0.127940 0.022250
v 0.085260 0.120150 0.063580
v 0.138750 0.176240 0.092060
v 0.149400 0.186650 0.046930
v 0.206730 0.237390 0.075540
v 0.197290 0.226500 0.120800
v 0.275930 0.283180 0.157980
v 0.284460 0.295400 0.116520
v 0.371570 0.352160 0.161990
v 0.364960 0.339070 0.199380
v 0.464550 0.403240 0.227810
v 0.020350 -0.004310 0.002850
v -0.006700 -0.004770 0.021980
v -0.000490 0.079460 0.039880
v 0.031640 0.080960 0.015710
v 0.047340 0.166390 0.037350
v 0.011790 0.164170 0.065970
v 0.030220 0.249440 0.099520
v 0.067850 0.251960 0.066650
v 0.088810 0.333990 0.103960
v 0.052730 0.329900 0.137120
v 0.086940 0.428460 0.188520
v 0.116440 0.433280 0.159390
v 0.153570 0.541250 0.223340
v 0.125980 0.534790 0.252560
v 0.177680 0.641790 0.304830
v 0.015780 -0.005370 -0.006490
v -0.013240 -0.008610 0.015850
v -0.008970 0.099470 0.051950
v 0.026720 0.105700 0.024330
v 0.038240 0.213640 0.065520
v -0.003220 0.205110 0.098800
v 0.007280 0.312160 0.153580
v 0.051450 0.323120 0.116190
v 0.067450 0.429030 0.169150
v 0.020050 0.414340 0.211710
v 0.039080 0.542020 0.288170
v 0.082640 0.559190 0.244540
v 0.093730 0.695360 0.334170
v 0.066320 0.681870 0.366740
v 0.100710 0.832730 0.436310
vt 0.668360 0.011720
vt 0.706180 0.011920
vt 0.710940 0.132550
vt 0.664470 0.132510
vt 0.659970 0.253290
vt 0.713560 0.253910
vt 0.718250 0.381880
vt 0.655330 0.381280
vt 0.653440 0.505560
vt 0.722240 0.505270
vt 0.717660 0.664550
vt 0.654040 0.664590
vt 0.663070 0.835320
vt 0.711200 0.835620
vt 0.685170 1.013280
vt 0.791070 0.008730
vt 0.836510 0.010040
vt 0.838350 0.128490
vt 0.787560 0.128170
vt 0.785370 0.250680
vt 0.843240 0.250640
vt 0.847800 0.373800
vt 0.781920 0.374370
vt 0.780270 0.502540
vt 0.847150 0.502260
vt 0.843600 0.660880
vt 0.782980 0.660510
vt 0.784840 0.833240
vt 0.840580 0.833420
vt 0.812460 1.012480
vt 0.917880 0.009300
vt 0.956650 0.010140
vt 0.961320 0.130730
vt 0.913260 0.130950
vt 0.910530 0.252920
vt 0.967330 0.252890
vt 0.970280 0.380340
vt 0.908150 0.380370
vt 0.902750 0.505860
vt 0.971770 0.505040
vt 0.971450 0.663130
vt 0.903850 0.664360
vt 0.914290 0.834950
vt 0.961450 0.834600
vt 0.936550 1.012580
vt 0.290040 0.011710
vt 0.335270 0.011630
vt 0.340530 0.129540
vt 0.285610 0.130290
vt 0.281950 0.252270
vt 0.344340 0.251690
vt 0.346070 0.379130
vt 0.277800 0.378490
vt 0.278640 0.504130
vt 0.345780 0.503850
vt 0.341210 0.661940
vt 0.284190 0.662460
vt 0.284130 0.839580
vt 0.339780 0.838340
vt 0.313560 1.013590
vt 0.415700 0.011400
vt 0.457420 0.011340
vt 0.462680 0.130080
vt 0.411220 0.130830
vt 0.406000 0.252810
vt 0.468160 0.252230
vt 0.471650 0.378610
vt 0.403080 0.379180
vt 0.400360 0.505210
vt 0.470460 0.504390
vt 0.466910 0.663550
vt 0.405750 0.663710
vt 0.411900 0.834300
vt 0.462280 0.833940
vt 0.438990 1.010320
vt 0.166620 0.012430
vt 0.208650 0.012690
vt 0.214980 0.132210
vt 0.161510 0.132420
vt 0.157530 0.254080
vt 0.217990 0.253820
vt 0.221930 0.382080
vt 0.153770 0.381760
vt 0.152070 0.506260
vt 0.222350 0.505980
vt 0.221660 0.664060
vt 0.155860 0.665300
vt 0.159330 0.837320
vt 0.218280 0.835530
vt 0.187480 1.014120
vt 0.415700 0.011400
vt 0.457420 0.011340
vt 0.462680 0.130080
vt 0.411220 0.130830
vt 0.406000 0.252810
vt 0.468160 0.252230
vt 0.471650 0.378610
vt 0.403080 0.379180
vt 0.400360 0.505210
vt 0.470460 0.504390
vt 0.466910 0.663550
vt 0.405750 0.663710
vt 0.411900 0.834300
vt 0.462280 0.833940
vt 0.438990 1.010320
vt 0.041110 0.010300
vt 0.084220 0.011630
vt 0.089480 0.129540
vt 0.033860 0.130290
vt 0.027380 0.252270
vt 0.093290 0.251690
vt 0.096790 0.378070
vt 0.023930 0.380250
vt 0.024420 0.504130
vt 0.097200 0.503850
vt 0.095800 0.661940
vt 0.028200 0.663170
vt 0.031670 0.834290
vt 0.093320 0.833400
vt 0.062520 1.017820
vt 0.290040 0.011710
vt 0.335270 0.011630
vt 0.340530 0.129540
vt 0.285610 0.130290
vt 0.281950 0.252270
vt 0.344340 0.251690
vt 0.346070 0.379130
vt 0.277800 0.378490
vt 0.278640 0.504130
vt 0.345780 0.503850
vt 0.341210 0.661940
vt 0.284190 0.662460
vt 0.284130 0.839580
vt 0.339780 0.838340
vt 0.313560 1.013590
vt 0.791070 0.008730
vt 0.836510 0.010040
vt 0.838350 0.128490
vt 0.787560 0.128170
vt 0.785370 0.250680
vt 0.843240 0.250640
vt 0.847800 0.373800
vt 0.781920 0.374370
vt 0.780270 0.502540
vt 0.847150 0.502260
vt 0.843600 0.660880
vt 0.782980 0.660510
vt 0.784840 0.833240
vt 0.840580 0.833420
vt 0.812460 1.012480
vt 0.544930 0.010230
vt 0.581240 0.010520
vt 0.587800 0.128420
vt 0.537410 0.128650
vt 0.532500 0.250890
vt 0.595010 0.250580
vt 0.597460 0.376950
vt 0.529250 0.377470
vt 0.529080 0.503020
vt 0.597880 0.502730
vt 0.595520 0.660820
vt 0.530560 0.662050
vt 0.532590 0.858460
vt 0.593530 0.858380
vt 0.561600 1.011930
vt 0.668360 0.011720
vt 0.706180 0.011920
vt 0.710940 0.132550
vt 0.664470 0.132510
vt 0.659970 0.253290
vt 0.713560 0.253910
vt 0.718250 0.381880
vt 0.655330 0.381280
vt 0.653440 0.505560
vt 0.722240 0.505270
vt 0.717660 0.664550
vt 0.654040 0.664590
vt 0.663070 0.835320
vt 0.711200 0.835620
vt 0.685170 1.013280
vt 0.041110 0.010300
vt 0.084220 0.011630
vt 0.089480 0.129540
vt 0.033860 0.130290
vt 0.027380 0.252270
vt 0.093290 0.251690
vt 0.096790 0.378070
vt 0.023930 0.380250
vt 0.024420 0.504130
vt 0.097200 0.503850
vt 0.095800 0.661940
vt 0.028200 0.663170
vt 0.031670 0.834290
vt 0.093320 0.833400
vt 0.062520 1.017820
vt 0.290040 0.011710
vt 0.335270 0.011630
vt 0.340530 0.129540
vt 0.285610 0.130290
vt 0.281950 0.252270
vt 0.344340 0.251690
vt 0.346070 0.379130
vt 0.277800 0.378490
vt 0.278640 0.504130
vt 0.345780 0.503850
vt 0.341210 0.661940
vt 0.284190 0.662460
vt 0.284130 0.839580
vt 0.339780 0.838340
vt 0.313560 1.013590
vt 0.917880 0.009300
vt 0.956650 0.010140
vt 0.961320 0.130730
vt 0.913260 0.130950
vt 0.910530 0.252920
vt 0.967330 0.252890
vt 0.970280 0.380340
vt 0.908150 0.380370
vt 0.902750 0.505860
vt 0.971770 0.505040
vt 0.971450 0.663130
vt 0.903850 0.664360
vt 0.914290 0.834950
vt 0.961450 0.834600
vt 0.936550 1.012580
vn -0.1974 0.0611 -0.9784
vn -0.2166 0.1311 -0.9674
vn -0.2496 0.1910 -0.9493
vn -0.2498 0.1913 -0.9492
vn -0.2989 0.2388 -0.9239
vn -0.2986 0.2386 -0.9240
vn -0.3590 0.2683 -0.8940
vn -0.3588 0.2682 -0.8941
vn -0.4519 0.2817 -0.8464
vn -0.4520 0.2817 -0.8464
vn -0.5672 0.2652 -0.7797
vn -0.5674 0.2652 -0.7796
vn -0.6964 0.2208 -0.6829
vn 0.8955 0.0301 -0.4441
vn 0.8952 0.0301 -0.4446
vn 0.8647 0.1499 -0.4794
vn 0.8648 0.1496 -0.4793
vn 0.8210 0.2599 -0.5083
vn 0.8211 0.2599 -0.5083
vn 0.7690 0.3509 -0.5344
vn 0.7687 0.3513 -0.5345
vn 0.7099 0.4239 -0.5625
vn 0.7100 0.4238 -0.5624
vn 0.6356 0.4828 -0.6024
vn 0.6359 0.4827 -0.6022
vn 0.5571 0.5088 -0.6563
vn 0.5571 0.5088 -0.6564
vn 0.4746 0.5076 -0.7191
vn 0.8582 0.2027 -0.4715
vn 0.8584 0.2027 -0.4713
vn 0.8291 0.3930 -0.3976
vn 0.8290 0.3934 -0.3974
vn 0.7658 0.5659 -0.3056
vn 0.7658 0.5658 -0.3057
vn 0.6750 0.7096 -0.2023
vn 0.6750 0.7096 -0.2022
vn 0.5686 0.8165 -0.1003
vn 0.5693 0.8159 -0.1010
vn 0.4201 0.9073 0.0186
vn 0.4188 0.9079 0.0195
vn 0.2467 0.9605 0.1288
vn 0.2471 0.9604 0.1285
vn 0.0620 0.9751 0.2130
vn 0.9799 0.0630 -0.1891
vn 0.9500 0.2793 -0.1398
vn 0.9497 0.2805 -0.1395
vn 0.8677 0.4934 -0.0609
vn 0.8681 0.4925 -0.0613
vn 0.7372 0.6741 0.0465
vn 0.7380 0.6732 0.0459
vn 0.5765 0.7987 0.1726
vn 0.5768 0.7985 0.1724
vn 0.3528 0.8676 0.3503
vn 0.3522 0.8677 0.3508
vn 0.1161 0.8233 0.5556
vn 0.1176 0.8240 0.5543
vn -0.0253 0.6833 0.7297
vn 0.8841 0.4046 0.2339
vn 0.8840 0.4047 0.2339
vn 0.7959 0.5546 0.2428
vn 0.7954 0.5554 0.2428
vn 0.6723 0.6949 0.2552
vn 0.6728 0.6944 0.2552
vn 0.5196 0.8097 0.2727
vn 0.5190 0.8101 0.2728
vn 0.3469 0.8900 0.2959
vn 0.3479 0.8897 0.2957
vn 0.1158 0.9354 0.3340
vn 0.1157 0.9354 0.3340
vn -0.1310 0.9123 0.3881
vn -0.1306 0.9124 0.3880
vn -0.3345 0.8210 0.4626
vn 0.6428 0.3835 0.6631
vn 0.6428 0.3835 0.6632
vn 0.5490 0.5655 0.6155
vn 0.5487 0.5658 0.6154
vn 0.4162 0.7265 0.5468
vn 0.4165 0.7262 0.5470
vn 0.2519 0.8496 0.4634
vn 0.2523 0.8493 0.4636
vn 0.0787 0.9222 0.3786
vn 0.0792 0.9221 0.3788
vn -0.1455 0.9502 0.2755
vn -0.1473 0.9502 0.2748
vn -0.3686 0.9105 0.1876
vn -0.3665 0.9112 0.1882
vn -0.5441 0.8268 0.1426
vn 0.1771 0.3070 0.9351
vn 0.1323 0.3976 0.9080
vn 0.1321 0.3980 0.9078
vn 0.0771 0.4849 0.8712
vn 0.0773 0.4845 0.8713
vn 0.0129 0.5622 0.8269
vn 0.0126 0.5624 0.8268
vn -0.0579 0.6262 0.7776
vn -0.0574 0.6258 0.7779
vn -0.1531 0.6857 0.7116
vn -0.2606 0.7236 0.6392
vn -0.2604 0.7235 0.6393
vn -0.3729 0.7342 0.5674
vn 0.0697 0.2992 0.9516
vn 0.0692 0.2991 0.9517
vn 0.0092 0.3938 0.9192
vn 0.0088 0.3943 0.9189
vn -0.0600 0.4733 0.8788
vn -0.0596 0.4730 0.8790
vn -0.1357 0.5309 0.8365
vn -0.1371 0.5317 0.8357
vn -0.2148 0.5654 0.7963
vn -0.2146 0.5654 0.7964
vn -0.3159 0.5780 0.7525
vn -0.3166 0.5779 0.7521
vn -0.4263 0.5561 0.7135
vn -0.4257 0.5563 0.7137
vn -0.5416 0.4979 0.6773
vn -0.5371 0.3235 0.7790
vn -0.5535 0.4266 0.7153
vn -0.5536 0.4271 0.7149
vn -0.5779 0.5139 0.6340
vn -0.5777 0.5137 0.6343
vn -0.6117 0.5761 0.5421
vn -0.6115 0.5758 0.5427
vn -0.6536 0.6091 0.4491
vn -0.6536 0.6091 0.4493
vn -0.7172 0.6119 0.3335
vn -0.7174 0.6118 0.3332
vn -0.7980 0.5645 0.2109
vn -0.7975 0.5650 0.2117
vn -0.8779 0.4684 0.0996
vn -0.8020 0.3946 0.4484
vn -0.8023 0.3945 0.4481
vn -0.7957 0.4892 0.3571
vn -0.7957 0.4890 0.3574
vn -0.7875 0.5623 0.2523
vn -0.7812 0.6079 0.1424
vn -0.7812 0.6080 0.1419
vn -0.7788 0.6266 0.0284
vn -0.7788 0.6266 0.0287
vn -0.7836 0.6126 -0.1036
vn -0.7835 0.6127 -0.1034
vn -0.7984 0.5563 -0.2306
vn -0.7984 0.5562 -0.2307
vn -0.8214 0.4586 -0.3389
vn -0.5756 0.3575 0.7354
vn -0.5757 0.3575 0.7354
vn -0.5800 0.4740 0.6625
vn -0.5801 0.4742 0.6623
vn -0.5805 0.5827 0.5688
vn -0.5805 0.5824 0.5691
vn -0.5808 0.6740 0.4566
vn -0.5808 0.6743 0.4561
vn -0.5832 0.7418 0.3311
vn -0.5832 0.7417 0.3314
vn -0.5920 0.7899 0.1598
vn -0.5921 0.7901 0.1584
vn -0.6145 0.7861 -0.0669
vn -0.6145 0.7861 -0.0668
vn -0.6392 0.7297 -0.2428
vn -0.8901 0.4328 -0.1425
vn -0.8490 0.5157 -0.1153
vn -0.8489 0.5158 -0.1153
vn -0.8029 0.5874 -0.1014
vn -0.8027 0.5877 -0.1014
vn -0.7548 0.6479 -0.1023
vn -0.7550 0.6477 -0.1023
vn -0.7117 0.6924 -0.1188
vn -0.7118 0.6923 -0.1188
vn -0.6630 0.7307 -0.1629
vn -0.6631 0.7308 -0.1623
vn -0.6195 0.7478 -0.2388
vn -0.6194 0.7478 -0.2389
vn -0.5796 0.7374 -0.3469
vn -0.8808 0.4590 -0.1164
vn -0.8285 0.5532 -0.0870
vn -0.8282 0.5537 -0.0867
vn -0.7727 0.6329 -0.0490
vn -0.7729 0.6326 -0.0492
vn -0.7210 0.6929 -0.0056
vn -0.7202 0.6938 -0.0048
vn -0.6786 0.7334 0.0405
vn -0.6787 0.7333 0.0404
vn -0.6423 0.7599 0.0997
vn -0.6422 0.7600 0.1001
vn -0.6266 0.7618 0.1645
vn -0.6266 0.7619 0.1642
vn -0.6335 0.7375 0.2341
vn -0.5725 0.1516 -0.8058
vn -0.5725 0.1515 -0.8058
vn -0.5905 0.2433 -0.7695
vn -0.5906 0.2439 -0.7692
vn -0.6055 0.3275 -0.7253
vn -0.6055 0.3272 -0.7255
vn -0.6197 0.3965 -0.6773
vn -0.6196 0.3961 -0.6776
vn -0.6340 0.4473 -0.6308
vn -0.6340 0.4473 -0.6309
vn -0.6545 0.4890 -0.5766
vn -0.6546 0.4891 -0.5765
vn -0.6826 0.5084 -0.5250
vn -0.6824 0.5083 -0.5253
vn -0.7146 0.5059 -0.4832
vn -0.6095 0.2319 -0.7581
vn -0.6096 0.2319 -0.7580
vn -0.6164 0.2989 -0.7285
vn -0.6164 0.2991 -0.7284
vn -0.6296 0.3525 -0.6924
vn -0.6508 0.3885 -0.6524
vn -0.6508 0.3885 -0.6523
vn -0.6789 0.4049 -0.6126
vn -0.6788 0.4048 -0.6127
vn -0.7239 0.3996 -0.5623
vn -0.7243 0.3995 -0.5619
vn -0.7810 0.3750 -0.4994
vn -0.7809 0.3750 -0.4996
vn -0.8443 0.3309 -0.4215
usemtl Leaves_v1x8.006
s 1
f 1/1/1 2/2/1 3/3/2
f 3/3/2 4/4/2 1/1/1
f 4/4/2 3/3/2 5/5/3
f 6/6/4 5/5/3 3/3/2
f 5/5/3 6/6/4 7/7/5
f 7/7/5 8/8/6 5/5/3
f 8/8/6 7/7/5 9/9/7
f 10/10/8 9/9/7 7/7/5
f 9/9/7 10/10/8 11/11/9
f 11/11/9 12/12/10 9/9/7
f 12/12/10 11/11/9 13/13/11
f 14/14/12 13/13/11 11/11/9
f 13/13/11 14/14/12 15/15/13
f 16/16/14 17/17/15 18/18/16
f 18/18/16 19/19/17 16/16/14
f 19/19/17 18/18/16 20/20/18
f 21/21/19 20/20/18 18/18/16
f 20/20/18 21/21/19 22/22/20
f 22/22/20 23/23/21 20/20/18
f 23/23/21 22/22/20 24/24/22
f 25/25/23 24/24/22 22/22/20
f 24/24/22 25/25/23 26/26/24
f 26/26/24 27/27/25 24/24/22
f 27/27/25 26/26/24 28/28/26
f 29/29/27 28/28/26 26/26/24
f 28/28/26 29/29/27 30/30/28
f 31/31/29 32/32/30 33/33/31
f 33/33/31 34/34/32 31/31/29
f 34/34/32 33/33/31 35/35/33
f 36/36/34 35/35/33 33/33/31
f 35/35/33 36/36/34 37/37/35
f 37/37/35 38/38/36 35/35/33
f 38/38/36 37/37/35 39/39/37
f 40/40/38 39/39/37 37/37/35
f 39/39/37 40/40/38 41/41/39
f 41/41/39 42/42/40 39/39/37
f 42/42/40 41/41/39 43/43/41
f 44/44/42 43/43/41 41/41/39
f 43/43/41 44/44/42 45/45/43
f 46/46/44 47/47/44 48/48/45
f 48/48/45 49/49/46 46/46/44
f 49/49/46 48/48/45 50/50/47
f 51/51/48 50/50/47 48/48/45
f 50/50/47 51/51/48 52/52/49
f 52/52/49 53/53/50 50/50/47
f 53/53/50 52/52/49 54/54/51
f 55/55/52 54/54/51 52/52/49
f 54/54/51 55/55/52 56/56/53
f 56/56/53 57/57/54 54/54/51
f 57/57/54 56/56/53 58/58/55
f 59/59/56 58/58/55 56/56/53
f 58/58/55 59/59/56 60/60/57
f 61/61/58 62/62/59 63/63/60
f 63/63/60 64/64/61 61/61/58
f 64/64/61 63/63/60 65/65/62
f 66/66/63 65/65/62 63/63/60
f 65/65/62 66/66/63 67/67/64
f 67/67/64 68/68/65 65/65/62
f 68/68/65 67/67/64 69/69/66
f 70/70/67 69/69/66 67/67/64
f 69/69/66 70/70/67 71/71/68
f 71/71/68 72/72/69 69/69/66
f 72/72/69 71/71/68 73/73/70
f 74/74/71 73/73/70 71/71/68
f 73/73/70 74/74/71 75/75/72
f 76/76/73 77/77/74 78/78/75
f 78/78/75 79/79/76 76/76/73
f 79/79/76 78/78/75 80/80/77
f 81/81/78 80/80/77 78/78/75
f 80/80/77 81/81/78 82/82/79
f 82/82/79 83/83/80 80/80/77
f 83/83/80 82/82/79 84/84/81
f 85/85/82 84/84/81 82/82/79
f 84/84/81 85/85/82 86/86/83
f 86/86/83 87/87/84 84/84/81
f 87/87/84 86/86/83 88/88/85
f 89/89/86 88/88/85 86/86/83
f 88/88/85 89/89/86 90/90/87
f 91/91/88 92/92/88 93/93/89
f 93/93/89 94/94/90 91/91/88
f 94/94/90 93/93/89 95/95/91
f 96/96/92 95/95/91 93/93/89
f 95/95/91 96/96/92 97/97/93
f 97/97/93 98/98/94 95/95/91
f 98/98/94 97/97/93 99/99/95
f 100/100/96 99/99/95 97/97/93
f 99/99/95 100/100/96 101/101/97
f 101/101/97 102/102/97 99/99/95
f 102/102/97 101/101/97 103/103/98
f 104/104/99 103/103/98 101/101/97
f 103/103/98 104/104/99 105/105/100
f 106/106/101 107/107/102 108/108/103
f 108/108/103 109/109/104 106/106/101
f 109/109/104 108/108/103 110/110/105
f 111/111/106 110/110/105 108/108/103
f 110/110/105 111/111/106 112/112/107
f 112/112/107 113/113/108 110/110/105
f 113/113/108 112/112/107 114/114/109
f 115/115/110 114/114/109 112/112/107
f 114/114/109 115/115/110 116/116/111
f 116/116/111 117/117/112 114/114/109
f 117/117/112 116/116/111 118/118/113
f 119/119/114 118/118/113 116/116/111
f 118/118/113 119/119/114 120/120/115
f 121/121/116 122/122/116 123/123/117
f 123/123/117 124/124/118 121/121/116
f 124/124/118 123/123/117 125/125/119
f 126/126/120 125/125/119 123/123/117
f 125/125/119 126/126/120 127/127/121
f 127/127/121 128/128/122 125/125/119
f 128/128/122 127/127/121 129/129/123
f 130/130/124 129/129/123 127/127/121
f 129/129/123 130/130/124 131/131/125
f 131/131/125 132/132/126 129/129/123
f 132/132/126 131/131/125 133/133/127
f 134/134/128 133/133/127 131/131/125
f 133/133/127 134/134/128 135/135/129
f 136/136/130 137/137/131 138/138/132
f 138/138/132 139/139/133 136/136/130
f 139/139/133 138/138/132 140/140/134
f 141/141/134 140/140/134 138/138/132
f 140/140/134 141/141/134 142/142/135
f 142/142/135 143/143/136 140/140/134
f 143/143/136 142/142/135 144/144/137
f 145/145/138 144/144/137 142/142/135
f 144/144/137 145/145/138 146/146/139
f 146/146/139 147/147/140 144/144/137
f 147/147/140 146/146/139 148/148/141
f 149/149/142 148/148/141 146/146/139
f 148/148/141 149/149/142 150/150/143
f 151/151/144 152/152/145 153/153/146
f 153/153/146 154/154/147 151/151/144
f 154/154/147 153/153/146 155/155/148
f 156/156/149 155/155/148 153/153/146
f 155/155/148 156/156/149 157/157/150
f 157/157/150 158/158/151 155/155/148
f 158/158/151 157/157/150 159/159/152
f 160/160/153 159/159/152 157/157/150
f 159/159/152 160/160/153 161/161/154
f 161/161/154 162/162/155 159/159/152
f 162/162/155 161/161/154 163/163/156
f 164/164/157 163/163/156 161/161/154
f 163/163/156 164/164/157 165/165/158
f 166/166/159 167/167/159 168/168/160
f 168/168/160 169/169/161 166/166/159
f 169/169/161 168/168/160 170/170/162
f 171/171/163 170/170/162 168/168/160
f 170/170/162 171/171/163 172/172/164
f 172/172/164 173/173/165 170/170/162
f 173/173/165 172/172/164 174/174/166
f 175/175/167 174/174/166 172/172/164
f 174/174/166 175/175/167 176/176/168
f 176/176/168 177/177/169 174/174/166
f 177/177/169 176/176/168 178/178/170
f 179/179/171 178/178/170 176/176/168
f 178/178/170 179/179/171 180/180/172
f 181/181/173 182/182/173 183/183/174
f 183/183/174 184/184/175 181/181/173
f 184/184/175 183/183/174 185/185/176
f 186/186/177 185/185/176 183/183/174
f 185/185/176 186/186/177 187/187/178
f 187/187/178 188/188/179 185/185/176
f 188/188/179 187/187/178 189/189/180
f 190/190/181 189/189/180 187/187/178
f 189/189/180 190/190/181 191/191/182
f 191/191/182 192/192/183 189/189/180
f 192/192/183 191/191/182 193/193/184
f 194/194/185 193/193/184 191/191/182
f 193/193/184 194/194/185 195/195/186
f 196/196/187 197/197/188 198/198/189
f 198/198/189 199/199/190 196/196/187
f 199/199/190 198/198/189 200/200/191
f 201/201/192 200/200/191 198/198/189
f 200/200/191 201/201/192 202/202/193
f 202/202/193 203/203/194 200/200/191
f 203/203/194 202/202/193 204/204/195
f 205/205/196 204/204/195 202/202/193
f 204/204/195 205/205/196 206/206/197
f 206/206/197 207/207/198 204/204/195
f 207/207/198 206/206/197 208/208/199
f 209/209/200 208/208/199 206/206/197
f 208/208/199 209/209/200 210/210/201
f 211/211/202 212/212/203 213/213/204
f 213/213/204 214/214/205 211/211/202
f 214/214/205 213/213/204 215/215/206
f 216/216/206 215/215/206 213/213/204
f 215/215/206 216/216/206 217/217/207
f 217/217/207 218/218/208 215/215/206
f 218/218/208 217/217/207 219/219/209
f 220/220/210 219/219/209 217/217/207
f 219/219/209 220/220/210 221/221/211
f 221/221/211 222/222/212 219/219/209
f 222/222/212 221/221/211 223/223/213
f 224/224/214 223/223/213 221/221/211
f 223/223/213 224/224/214 225/225/215
