# Blender v2.93.0 OBJ File: ''
# www.blender.org
mtllib Reeds01-04.mtl
o Reeds01-04
v 0.004940 -0.005710 0.030990
v -0.020330 -0.001230 0.006470
v -0.031500 0.087560 0.031320
v -0.001830 0.083100 0.057240
v -0.013000 0.170910 0.092500
v -0.048210 0.175870 0.064650
v -0.067860 0.260910 0.106490
v -0.026490 0.255610 0.136600
v -0.044270 0.339430 0.188290
v -0.087430 0.344900 0.159430
v -0.112370 0.443010 0.233130
v -0.072220 0.437850 0.257610
v -0.104760 0.539950 0.340810
v -0.142230 0.544460 0.319160
v -0.157660 0.644070 0.421830
v 0.015540 -0.002760 -0.002950
v -0.015060 -0.007420 0.002320
v -0.029640 0.070090 0.042280
v 0.009390 0.077400 0.038200
v -0.002150 0.146280 0.097980
v -0.046240 0.137090 0.100190
v -0.067850 0.191510 0.176130
v -0.018230 0.202580 0.175400
v -0.037900 0.240480 0.260900
v -0.088650 0.227820 0.259660
v -0.116280 0.250720 0.375040
v -0.069510 0.264310 0.378210
v -0.104450 0.263080 0.509170
v -0.145300 0.248830 0.505010
v -0.156960 0.230240 0.641920
v -0.015180 -0.007060 0.028160
v -0.034560 -0.006950 -0.006920
v -0.050820 0.105620 -0.006460
v -0.024230 0.106790 0.037000
v -0.054830 0.217860 0.053640
v -0.086300 0.215210 0.005450
v -0.144840 0.321100 0.026040
v -0.108340 0.325220 0.079620
v -0.180340 0.416810 0.111300
v -0.217430 0.410630 0.055970
v -0.330570 0.502020 0.103800
v -0.297880 0.509360 0.156600
v -0.445630 0.574080 0.214930
v -0.472090 0.567570 0.166040
v -0.621270 0.596830 0.259600
v 0.007940 -0.004680 0.019650
v -0.006340 -0.008280 -0.019450
v -0.069000 0.092300 -0.014950
v -0.050660 0.098490 0.034540
v -0.124200 0.193680 0.050700
v -0.145790 0.184820 -0.004650
v -0.240110 0.270050 0.007970
v -0.213860 0.282520 0.069170
v -0.312000 0.357590 0.086760
v -0.340230 0.340700 0.025250
v -0.478650 0.414010 0.050710
v -0.451080 0.435620 0.105580
v -0.611940 0.499990 0.127900
v -0.637600 0.474260 0.082730
v -0.796970 0.532790 0.135660
v -0.023460 -0.007840 0.013920
v 0.001360 -0.006970 -0.020380
v -0.014530 0.112560 -0.031930
v -0.044800 0.110050 0.012540
v -0.094780 0.220630 0.001120
v -0.062520 0.225220 -0.050310
v -0.140430 0.327370 -0.079100
v -0.173650 0.320500 -0.019500
v -0.270330 0.397820 -0.047830
v -0.238520 0.404830 -0.110610
v -0.385100 0.470090 -0.156250
v -0.412440 0.464540 -0.096060
v -0.582190 0.494310 -0.152790
v -0.559890 0.497600 -0.207840
v -0.755150 0.481880 -0.236730
v -0.022620 -0.006650 0.010720
v 0.008680 -0.001860 -0.018540
v -0.015810 0.107590 -0.030600
v -0.051820 0.101880 0.000870
v -0.092120 0.209190 -0.015090
v -0.050370 0.217120 -0.049780
v -0.096710 0.322500 -0.073720
v -0.144780 0.311850 -0.035260
v -0.208880 0.411500 -0.062000
v -0.160280 0.424660 -0.100460
v -0.255330 0.538500 -0.138420
v -0.298440 0.523960 -0.103610
v -0.412920 0.630450 -0.155110
v -0.374220 0.645520 -0.187400
v -0.529180 0.728440 -0.230010
v -0.030470 -0.005060 -0.011340
v -0.002480 -0.002020 -0.021810
v -0.015350 0.078270 -0.038080
v -0.052000 0.073400 -0.026440
v -0.087340 0.144200 -0.056090
v -0.044070 0.153880 -0.067900
v -0.086730 0.220520 -0.110260
v -0.134330 0.205860 -0.100170
v -0.186100 0.252130 -0.152370
v -0.140970 0.272390 -0.160850
v -0.219860 0.316170 -0.232830
v -0.259080 0.291850 -0.228230
v -0.343950 0.310220 -0.315680
v -0.312890 0.337900 -0.317040
v -0.427050 0.320630 -0.411170
v -0.022930 -0.005240 -0.021900
v 0.002200 -0.001950 -0.024990
v -0.010540 0.069940 -0.061840
v -0.041280 0.064250 -0.059360
v -0.065410 0.123160 -0.109980
v -0.030580 0.132570 -0.111610
v -0.055930 0.185970 -0.175760
v -0.095570 0.171280 -0.175610
v -0.126440 0.202510 -0.248170
v -0.085050 0.222790 -0.246220
v -0.132530 0.243200 -0.345490
v -0.166710 0.218700 -0.348490
v -0.206550 0.208660 -0.458040
v -0.185660 0.231520 -0.455540
v -0.243890 0.175560 -0.566630
v -0.010800 -0.001690 -0.023430
v 0.015470 -0.005590 -0.028680
v 0.023720 0.066000 -0.075280
v -0.008820 0.071160 -0.070700
v -0.005830 0.131800 -0.133270
v 0.032060 0.126540 -0.136430
v 0.043480 0.175260 -0.213290
v -0.001310 0.179960 -0.212780
v 0.005890 0.209080 -0.299080
v 0.054950 0.206570 -0.295770
v 0.063270 0.223230 -0.410130
v 0.018230 0.220580 -0.416260
v 0.037940 0.203140 -0.542170
v 0.070970 0.210260 -0.536140
v 0.066030 0.161500 -0.666200
v 0.005770 -0.000710 -0.021210
v 0.029090 -0.005600 -0.006470
v 0.064700 0.061070 -0.030850
v 0.036020 0.068760 -0.048480
v 0.073390 0.134070 -0.081900
v 0.107990 0.123500 -0.061160
v 0.157610 0.181400 -0.097980
v 0.119850 0.194430 -0.120720
v 0.171700 0.247120 -0.163750
v 0.209560 0.232600 -0.140120
v 0.280260 0.287320 -0.198710
v 0.247800 0.300560 -0.219910
v 0.335530 0.344340 -0.284830
v 0.361320 0.333250 -0.266190
v 0.440580 0.371230 -0.346920
v -0.006270 -0.003080 -0.019240
v 0.012950 -0.007850 0.018680
v 0.064970 0.090280 0.011640
v 0.040250 0.098370 -0.033320
v 0.097750 0.197630 -0.048790
v 0.128060 0.186210 0.000520
v 0.201080 0.280760 -0.015060
v 0.164620 0.295530 -0.066290
v 0.239440 0.387640 -0.080760
v 0.277350 0.368980 -0.033430
v 0.376570 0.477630 -0.060990
v 0.341810 0.497680 -0.096870
v 0.456010 0.619670 -0.119190
v 0.492240 0.595140 -0.090250
v 0.589940 0.723910 -0.129210
v 0.000380 -0.002800 -0.012670
v 0.007350 -0.003060 0.014870
v 0.018770 0.069750 0.017380
v 0.009950 0.071500 -0.013060
v 0.026380 0.146550 -0.011540
v 0.037960 0.143340 0.022560
v 0.062840 0.216000 0.028040
v 0.047570 0.221190 -0.009810
v 0.073380 0.297320 -0.006120
v 0.091600 0.290860 0.030900
v 0.129070 0.382660 0.033070
v 0.109040 0.389720 0.001720
v 0.149500 0.490100 0.010210
v 0.171550 0.481930 0.035880
v 0.204320 0.589260 0.029180
v 0.019970 -0.005560 -0.007120
v -0.010300 -0.003590 0.015850
v -0.002410 0.099920 0.027420
v 0.035260 0.098990 -0.004050
v 0.059420 0.203250 0.006070
v 0.017130 0.204820 0.045990
v 0.046530 0.310140 0.071380
v 0.090490 0.310110 0.024380
v 0.124120 0.411170 0.048950
v 0.084410 0.411690 0.099440
v 0.139280 0.535790 0.137490
v 0.171330 0.538110 0.087240
v 0.226120 0.672670 0.131220
v 0.203040 0.667990 0.180230
v 0.280420 0.812340 0.203280
v 0.005060 -0.003730 -0.017070
v 0.000220 -0.005970 0.020700
v 0.019030 0.097970 0.039920
v 0.026970 0.103670 -0.006040
v 0.069610 0.205030 0.019480
v 0.058140 0.195860 0.074260
v 0.116790 0.283640 0.120800
v 0.131120 0.296310 0.061350
v 0.206450 0.371090 0.113760
v 0.190430 0.355460 0.173370
v 0.298950 0.421990 0.248850
v 0.313240 0.438380 0.197800
v 0.438960 0.480090 0.296730
v 0.426980 0.463520 0.337310
v 0.570010 0.484890 0.419220
v 0.015060 -0.004060 0.024780
v -0.014310 -0.003550 0.021560
v -0.019110 0.090770 0.039830
v 0.021840 0.090250 0.042010
v 0.027370 0.180280 0.083770
v -0.023500 0.180690 0.083530
v -0.023090 0.259480 0.151850
v 0.032390 0.259820 0.150100
v 0.035530 0.319920 0.235030
v -0.020340 0.318770 0.238340
v -0.013890 0.361200 0.364820
v 0.038800 0.363480 0.361760
v 0.043160 0.361930 0.531080
v -0.006200 0.359220 0.534680
v 0.024250 0.319330 0.661800
vt 0.791070 0.008730
vt 0.836510 0.010040
vt 0.838350 0.128490
vt 0.787560 0.128170
vt 0.785370 0.250680
vt 0.843240 0.250640
vt 0.847800 0.373800
vt 0.781920 0.374370
vt 0.780270 0.502540
vt 0.847150 0.502260
vt 0.843600 0.660880
vt 0.782980 0.660510
vt 0.784840 0.833240
vt 0.840580 0.833420
vt 0.812460 1.012480
vt 0.166620 0.012430
vt 0.208650 0.012690
vt 0.214980 0.132210
vt 0.161510 0.132420
vt 0.157530 0.254080
vt 0.217990 0.253820
vt 0.221930 0.382080
vt 0.153770 0.381760
vt 0.152070 0.506260
vt 0.222350 0.505980
vt 0.221660 0.664060
vt 0.155860 0.665300
vt 0.159330 0.837320
vt 0.218280 0.835530
vt 0.187480 1.014120
vt 0.166620 0.012430
vt 0.208650 0.012690
vt 0.214980 0.132210
vt 0.161510 0.132420
vt 0.157530 0.254080
vt 0.217990 0.253820
vt 0.221930 0.382080
vt 0.153770 0.381760
vt 0.152070 0.506260
vt 0.222350 0.505980
vt 0.221660 0.664060
vt 0.155860 0.665300
vt 0.159330 0.837320
vt 0.218280 0.835530
vt 0.187480 1.014120
vt 0.166620 0.012430
vt 0.208650 0.012690
vt 0.214980 0.132210
vt 0.161510 0.132420
vt 0.157530 0.254080
vt 0.217990 0.253820
vt 0.221930 0.382080
vt 0.153770 0.381760
vt 0.152070 0.506260
vt 0.222350 0.505980
vt 0.221660 0.664060
vt 0.155860 0.665300
vt 0.159330 0.837320
vt 0.218280 0.835530
vt 0.187480 1.014120
vt 0.166620 0.012430
vt 0.208650 0.012690
vt 0.214980 0.132210
vt 0.161510 0.132420
vt 0.157530 0.254080
vt 0.217990 0.253820
vt 0.221930 0.382080
vt 0.153770 0.381760
vt 0.152070 0.506260
vt 0.222350 0.505980
vt 0.221660 0.664060
vt 0.155860 0.665300
vt 0.159330 0.837320
vt 0.218280 0.835530
vt 0.187480 1.014120
vt 0.791070 0.008730
vt 0.836510 0.010040
vt 0.838350 0.128490
vt 0.787560 0.128170
vt 0.785370 0.250680
vt 0.843240 0.250640
vt 0.847800 0.373800
vt 0.781920 0.374370
vt 0.780270 0.502540
vt 0.847150 0.502260
vt 0.843600 0.660880
vt 0.782980 0.660510
vt 0.784840 0.833240
vt 0.840580 0.833420
vt 0.812460 1.012480
vt 0.041110 0.010300
vt 0.084220 0.011630
vt 0.089480 0.129540
vt 0.033860 0.130290
vt 0.027380 0.252270
vt 0.093290 0.251690
vt 0.096790 0.378070
vt 0.023930 0.380250
vt 0.024420 0.504130
vt 0.097200 0.503850
vt 0.095800 0.661940
vt 0.028200 0.663170
vt 0.031670 0.834290
vt 0.093320 0.833400
vt 0.062520 1.017820
vt 0.668360 0.011720
vt 0.706180 0.011920
vt 0.710940 0.132550
vt 0.664470 0.132510
vt 0.659970 0.253290
vt 0.713560 0.253910
vt 0.718250 0.381880
vt 0.655330 0.381280
vt 0.653440 0.505560
vt 0.722240 0.505270
vt 0.717660 0.664550
vt 0.654040 0.664590
vt 0.663070 0.835320
vt 0.711200 0.835620
vt 0.685170 1.013280
vt 0.668360 0.011720
vt 0.706180 0.011920
vt 0.710940 0.132550
vt 0.664470 0.132510
vt 0.659970 0.253290
vt 0.713560 0.253910
vt 0.718250 0.381880
vt 0.655330 0.381280
vt 0.653440 0.505560
vt 0.722240 0.505270
vt 0.717660 0.664550
vt 0.654040 0.664590
vt 0.663070 0.835320
vt 0.711200 0.835620
vt 0.685170 1.013280
vt 0.415700 0.011400
vt 0.457420 0.011340
vt 0.462680 0.130080
vt 0.411220 0.130830
vt 0.406000 0.252810
vt 0.468160 0.252230
vt 0.471650 0.378610
vt 0.403080 0.379180
vt 0.400360 0.505210
vt 0.470460 0.504390
vt 0.466910 0.663550
vt 0.405750 0.663710
vt 0.411900 0.834300
vt 0.462280 0.833940
vt 0.438990 1.010320
vt 0.290040 0.011710
vt 0.335270 0.011630
vt 0.340530 0.129540
vt 0.285610 0.130290
vt 0.281950 0.252270
vt 0.344340 0.251690
vt 0.346070 0.379130
vt 0.277800 0.378490
vt 0.278640 0.504130
vt 0.345780 0.503850
vt 0.341210 0.661940
vt 0.284190 0.662460
vt 0.284130 0.839580
vt 0.339780 0.838340
vt 0.313560 1.013590
vt 0.791070 0.008730
vt 0.836510 0.010040
vt 0.838350 0.128490
vt 0.787560 0.128170
vt 0.785370 0.250680
vt 0.843240 0.250640
vt 0.847800 0.373800
vt 0.781920 0.374370
vt 0.780270 0.502540
vt 0.847150 0.502260
vt 0.843600 0.660880
vt 0.782980 0.660510
vt 0.784840 0.833240
vt 0.840580 0.833420
vt 0.812460 1.012480
vt 0.041110 0.010300
vt 0.084220 0.011630
vt 0.089480 0.129540
vt 0.033860 0.130290
vt 0.027380 0.252270
vt 0.093290 0.251690
vt 0.096790 0.378070
vt 0.023930 0.380250
vt 0.024420 0.504130
vt 0.097200 0.503850
vt 0.095800 0.661940
vt 0.028200 0.663170
vt 0.031670 0.834290
vt 0.093320 0.833400
vt 0.062520 1.017820
vt 0.415700 0.011400
vt 0.457420 0.011340
vt 0.462680 0.130080
vt 0.411220 0.130830
vt 0.406000 0.252810
vt 0.468160 0.252230
vt 0.471650 0.378610
vt 0.403080 0.379180
vt 0.400360 0.505210
vt 0.470460 0.504390
vt 0.466910 0.663550
vt 0.405750 0.663710
vt 0.411900 0.834300
vt 0.462280 0.833940
vt 0.438990 1.010320
vt 0.544930 0.010230
vt 0.581240 0.010520
vt 0.587800 0.128420
vt 0.537410 0.128650
vt 0.532500 0.250890
vt 0.595010 0.250580
vt 0.597460 0.376950
vt 0.529250 0.377470
vt 0.529080 0.503020
vt 0.597880 0.502730
vt 0.595520 0.660820
vt 0.530560 0.662050
vt 0.532590 0.858460
vt 0.593530 0.858380
vt 0.561600 1.011930
vn 0.6996 0.2157 -0.6812
vn 0.6992 0.2158 -0.6816
vn 0.6524 0.3061 -0.6932
vn 0.6526 0.3059 -0.6932
vn 0.6053 0.3906 -0.6935
vn 0.6054 0.3906 -0.6935
vn 0.5612 0.4630 -0.6861
vn 0.5610 0.4633 -0.6861
vn 0.5203 0.5247 -0.6738
vn 0.5204 0.5245 -0.6739
vn 0.4795 0.5817 -0.6570
vn 0.4796 0.5816 -0.6570
vn 0.4492 0.6220 -0.6414
vn 0.4349 0.6415 -0.6319
vn -0.2090 0.3308 -0.9203
vn -0.2088 0.3308 -0.9203
vn -0.1851 0.5075 -0.8416
vn -0.1847 0.5078 -0.8415
vn -0.1822 0.6638 -0.7253
vn -0.1822 0.6635 -0.7256
vn -0.1979 0.7867 -0.5848
vn -0.1978 0.7864 -0.5851
vn -0.2283 0.8663 -0.4444
vn -0.2282 0.8661 -0.4447
vn -0.2846 0.9178 -0.2769
vn -0.2851 0.9180 -0.2756
vn -0.3646 0.9230 -0.1232
vn -0.3637 0.9232 -0.1246
vn -0.4607 0.8874 -0.0136
vn 0.8750 0.0297 -0.4832
vn 0.8749 0.0297 -0.4833
vn 0.8350 0.1896 -0.5166
vn 0.8348 0.1899 -0.5168
vn 0.7728 0.3526 -0.5277
vn 0.7729 0.3523 -0.5277
vn 0.6889 0.5085 -0.5166
vn 0.6891 0.5082 -0.5167
vn 0.5931 0.6423 -0.4854
vn 0.5934 0.6420 -0.4856
vn 0.4565 0.7848 -0.4192
vn 0.4554 0.7858 -0.4186
vn 0.2938 0.9026 -0.3147
vn 0.2955 0.9016 -0.3159
vn 0.1218 0.9767 -0.1765
vn 0.8252 0.4490 -0.3427
vn 0.8252 0.4490 -0.3428
vn 0.7595 0.5481 -0.3505
vn 0.7593 0.5483 -0.3505
vn 0.6773 0.6369 -0.3683
vn 0.6775 0.6367 -0.3683
vn 0.5823 0.7084 -0.3989
vn 0.5825 0.7083 -0.3988
vn 0.4852 0.7556 -0.4401
vn 0.4855 0.7555 -0.4400
vn 0.3601 0.7825 -0.5080
vn 0.3591 0.7825 -0.5086
vn 0.2269 0.7672 -0.6000
vn 0.2283 0.7676 -0.5989
vn 0.1032 0.7002 -0.7064
vn 0.8088 0.0433 0.5864
vn 0.8089 0.0433 0.5864
vn 0.7921 0.2529 0.5555
vn 0.7921 0.2532 0.5554
vn 0.7310 0.4571 0.5066
vn 0.7312 0.4567 0.5067
vn 0.6312 0.6387 0.4400
vn 0.6315 0.6383 0.4402
vn 0.5114 0.7783 0.3643
vn 0.5117 0.7780 0.3645
vn 0.3434 0.9032 0.2575
vn 0.3421 0.9040 0.2566
vn 0.1589 0.9783 0.1329
vn 0.1607 0.9778 0.1342
vn -0.0111 0.9999 0.0038
vn 0.6559 0.1862 0.7315
vn 0.6556 0.1861 0.7318
vn 0.6098 0.2650 0.7469
vn 0.6099 0.2648 0.7469
vn 0.5592 0.3431 0.7547
vn 0.5062 0.4161 0.7554
vn 0.5060 0.4164 0.7554
vn 0.4497 0.4864 0.7491
vn 0.4499 0.4862 0.7491
vn 0.3795 0.5655 0.7322
vn 0.3797 0.5653 0.7323
vn 0.3029 0.6434 0.7030
vn 0.3029 0.6435 0.7030
vn 0.2235 0.7164 0.6609
vn 0.3333 0.1438 0.9318
vn 0.3328 0.1438 0.9320
vn 0.2456 0.3218 0.9144
vn 0.2449 0.3229 0.9142
vn 0.1232 0.4687 0.8747
vn 0.1239 0.4680 0.8750
vn -0.0209 0.5665 0.8238
vn -0.0235 0.5678 0.8228
vn -0.1711 0.6115 0.7725
vn -0.1707 0.6115 0.7727
vn -0.3495 0.5991 0.7203
vn -0.3508 0.5988 0.7200
vn -0.5131 0.5129 0.6883
vn -0.5124 0.5135 0.6883
vn -0.6345 0.3582 0.6849
vn 0.0621 0.3904 0.9186
vn 0.0620 0.3903 0.9186
vn -0.0303 0.5265 0.8496
vn -0.1441 0.6382 0.7563
vn -0.1447 0.6386 0.7558
vn -0.2819 0.7136 0.6413
vn -0.2814 0.7134 0.6418
vn -0.4241 0.7375 0.5255
vn -0.4237 0.7375 0.5259
vn -0.6063 0.6937 0.3887
vn -0.6065 0.6937 0.3886
vn -0.7792 0.5584 0.2849
vn -0.7794 0.5581 0.2847
vn -0.8992 0.3484 0.2645
vn 0.2380 0.4319 0.8699
vn 0.2047 0.5906 0.7806
vn 0.1608 0.7342 0.6596
vn 0.1606 0.7348 0.6590
vn 0.1011 0.8564 0.5062
vn 0.1014 0.8560 0.5069
vn 0.0300 0.9395 0.3413
vn 0.0302 0.9393 0.3418
vn -0.0816 0.9896 0.1181
vn -0.0817 0.9896 0.1180
vn -0.2266 0.9674 -0.1131
vn -0.2268 0.9673 -0.1134
vn -0.4024 0.8670 -0.2939
vn -0.4130 0.4377 0.7987
vn -0.3432 0.5159 0.7849
vn -0.3429 0.5163 0.7848
vn -0.2733 0.5887 0.7608
vn -0.2735 0.5884 0.7609
vn -0.2070 0.6529 0.7287
vn -0.2067 0.6531 0.7285
vn -0.1472 0.7085 0.6902
vn -0.1476 0.7082 0.6904
vn -0.0832 0.7687 0.6342
vn -0.0832 0.7687 0.6341
vn -0.0284 0.8249 0.5645
vn -0.0285 0.8248 0.5647
vn 0.0121 0.8759 0.4823
vn -0.8002 0.3910 0.4548
vn -0.7413 0.4584 0.4902
vn -0.7410 0.4587 0.4904
vn -0.6738 0.5106 0.5341
vn -0.6741 0.5104 0.5339
vn -0.6022 0.5410 0.5872
vn -0.6026 0.5408 0.5868
vn -0.5315 0.5478 0.6461
vn -0.5316 0.5478 0.6460
vn -0.4425 0.5246 0.7273
vn -0.4422 0.5244 0.7276
vn -0.3381 0.4602 0.8209
vn -0.3388 0.4608 0.8203
vn -0.2209 0.3668 0.9037
vn -0.9653 0.0906 0.2448
vn -0.9652 0.0906 0.2451
vn -0.9450 0.1633 0.2833
vn -0.9451 0.1631 0.2832
vn -0.9168 0.2198 0.3333
vn -0.8833 0.2552 0.3933
vn -0.8831 0.2553 0.3936
vn -0.8435 0.2692 0.4648
vn -0.8436 0.2692 0.4646
vn -0.7863 0.2564 0.5622
vn -0.7864 0.2564 0.5620
vn -0.7025 0.2232 0.6758
vn -0.7024 0.2231 0.6759
vn -0.5842 0.1708 0.7935
vn -0.6002 0.0674 -0.7970
vn -0.6006 0.0674 -0.7967
vn -0.6294 0.1672 -0.7589
vn -0.6296 0.1679 -0.7586
vn -0.6578 0.2584 -0.7075
vn -0.6576 0.2580 -0.7078
vn -0.6884 0.3327 -0.6446
vn -0.6890 0.3338 -0.6433
vn -0.7228 0.3867 -0.5727
vn -0.7228 0.3866 -0.5728
vn -0.7730 0.4239 -0.4720
vn -0.7734 0.4241 -0.4712
vn -0.8338 0.4282 -0.3485
vn -0.8335 0.4282 -0.3492
vn -0.8914 0.4084 -0.1963
vn -0.9870 0.1065 -0.1201
vn -0.9870 0.1066 -0.1201
vn -0.9505 0.2839 -0.1264
vn -0.9502 0.2849 -0.1263
vn -0.8864 0.4517 -0.1011
vn -0.8867 0.4510 -0.1013
vn -0.8039 0.5927 -0.0492
vn -0.8036 0.5932 -0.0490
vn -0.7141 0.6997 0.0220
vn -0.7146 0.6992 0.0215
vn -0.6053 0.7856 0.1281
vn -0.6052 0.7857 0.1281
vn -0.5067 0.8244 0.2523
vn -0.5069 0.8244 0.2521
vn -0.4363 0.8153 0.3808
vn 0.1100 0.0665 -0.9917
vn 0.1098 0.0665 -0.9917
vn 0.0551 0.2776 -0.9591
vn 0.0550 0.2780 -0.9590
vn 0.0087 0.4888 -0.8723
vn 0.0088 0.4883 -0.8727
vn -0.0282 0.6762 -0.7361
vn -0.0283 0.6769 -0.7355
vn -0.0543 0.8245 -0.5633
vn -0.0542 0.8242 -0.5637
vn -0.0723 0.9470 -0.3131
vn -0.0724 0.9476 -0.3111
vn -0.0732 0.9971 0.0216
vn -0.0732 0.9971 0.0214
vn -0.0588 0.9651 0.2552
usemtl Leaves_v1x8.003
s 1
f 1/1/1 2/2/2 3/3/3
f 3/3/3 4/4/4 1/1/1
f 4/4/4 3/3/3 5/5/5
f 6/6/6 5/5/5 3/3/3
f 5/5/5 6/6/6 7/7/7
f 7/7/7 8/8/8 5/5/5
f 8/8/8 7/7/7 9/9/9
f 10/10/10 9/9/9 7/7/7
f 9/9/9 10/10/10 11/11/11
f 11/11/11 12/12/12 9/9/9
f 12/12/12 11/11/11 13/13/13
f 14/14/13 13/13/13 11/11/11
f 13/13/13 14/14/13 15/15/14
f 16/16/15 17/17/16 18/18/17
f 18/18/17 19/19/18 16/16/15
f 19/19/18 18/18/17 20/20/19
f 21/21/20 20/20/19 18/18/17
f 20/20/19 21/21/20 22/22/21
f 22/22/21 23/23/22 20/20/19
f 23/23/22 22/22/21 24/24/23
f 25/25/24 24/24/23 22/22/21
f 24/24/23 25/25/24 26/26/25
f 26/26/25 27/27/26 24/24/23
f 27/27/26 26/26/25 28/28/27
f 29/29/28 28/28/27 26/26/25
f 28/28/27 29/29/28 30/30/29
f 31/31/30 32/32/31 33/33/32
f 33/33/32 34/34/33 31/31/30
f 34/34/33 33/33/32 35/35/34
f 36/36/35 35/35/34 33/33/32
f 35/35/34 36/36/35 37/37/36
f 37/37/36 38/38/37 35/35/34
f 38/38/37 37/37/36 39/39/38
f 40/40/39 39/39/38 37/37/36
f 39/39/38 40/40/39 41/41/40
f 41/41/40 42/42/41 39/39/38
f 42/42/41 41/41/40 43/43/42
f 44/44/43 43/43/42 41/41/40
f 43/43/42 44/44/43 45/45/44
f 46/46/45 47/47/46 48/48/47
f 48/48/47 49/49/48 46/46/45
f 49/49/48 48/48/47 50/50/49
f 51/51/50 50/50/49 48/48/47
f 50/50/49 51/51/50 52/52/51
f 52/52/51 53/53/52 50/50/49
f 53/53/52 52/52/51 54/54/53
f 55/55/54 54/54/53 52/52/51
f 54/54/53 55/55/54 56/56/55
f 56/56/55 57/57/56 54/54/53
f 57/57/56 56/56/55 58/58/57
f 59/59/58 58/58/57 56/56/55
f 58/58/57 59/59/58 60/60/59
f 61/61/60 62/62/61 63/63/62
f 63/63/62 64/64/63 61/61/60
f 64/64/63 63/63/62 65/65/64
f 66/66/65 65/65/64 63/63/62
f 65/65/64 66/66/65 67/67/66
f 67/67/66 68/68/67 65/65/64
f 68/68/67 67/67/66 69/69/68
f 70/70/69 69/69/68 67/67/66
f 69/69/68 70/70/69 71/71/70
f 71/71/70 72/72/71 69/69/68
f 72/72/71 71/71/70 73/73/72
f 74/74/73 73/73/72 71/71/70
f 73/73/72 74/74/73 75/75/74
f 76/76/75 77/77/76 78/78/77
f 78/78/77 79/79/78 76/76/75
f 79/79/78 78/78/77 80/80/79
f 81/81/79 80/80/79 78/78/77
f 80/80/79 81/81/79 82/82/80
f 82/82/80 83/83/81 80/80/79
f 83/83/81 82/82/80 84/84/82
f 85/85/83 84/84/82 82/82/80
f 84/84/82 85/85/83 86/86/84
f 86/86/84 87/87/85 84/84/82
f 87/87/85 86/86/84 88/88/86
f 89/89/87 88/88/86 86/86/84
f 88/88/86 89/89/87 90/90/88
f 91/91/89 92/92/90 93/93/91
f 93/93/91 94/94/92 91/91/89
f 94/94/92 93/93/91 95/95/93
f 96/96/94 95/95/93 93/93/91
f 95/95/93 96/96/94 97/97/95
f 97/97/95 98/98/96 95/95/93
f 98/98/96 97/97/95 99/99/97
f 100/100/98 99/99/97 97/97/95
f 99/99/97 100/100/98 101/101/99
f 101/101/99 102/102/100 99/99/97
f 102/102/100 101/101/99 103/103/101
f 104/104/102 103/103/101 101/101/99
f 103/103/101 104/104/102 105/105/103
f 106/106/104 107/107/105 108/108/106
f 108/108/106 109/109/106 106/106/104
f 109/109/106 108/108/106 110/110/107
f 111/111/108 110/110/107 108/108/106
f 110/110/107 111/111/108 112/112/109
f 112/112/109 113/113/110 110/110/107
f 113/113/110 112/112/109 114/114/111
f 115/115/112 114/114/111 112/112/109
f 114/114/111 115/115/112 116/116/113
f 116/116/113 117/117/114 114/114/111
f 117/117/114 116/116/113 118/118/115
f 119/119/116 118/118/115 116/116/113
f 118/118/115 119/119/116 120/120/117
f 121/121/118 122/122/118 123/123/119
f 123/123/119 124/124/119 121/121/118
f 124/124/119 123/123/119 125/125/120
f 126/126/121 125/125/120 123/123/119
f 125/125/120 126/126/121 127/127/122
f 127/127/122 128/128/123 125/125/120
f 128/128/123 127/127/122 129/129/124
f 130/130/125 129/129/124 127/127/122
f 129/129/124 130/130/125 131/131/126
f 131/131/126 132/132/127 129/129/124
f 132/132/127 131/131/126 133/133/128
f 134/134/129 133/133/128 131/131/126
f 133/133/128 134/134/129 135/135/130
f 136/136/131 137/137/131 138/138/132
f 138/138/132 139/139/133 136/136/131
f 139/139/133 138/138/132 140/140/134
f 141/141/135 140/140/134 138/138/132
f 140/140/134 141/141/135 142/142/136
f 142/142/136 143/143/137 140/140/134
f 143/143/137 142/142/136 144/144/138
f 145/145/139 144/144/138 142/142/136
f 144/144/138 145/145/139 146/146/140
f 146/146/140 147/147/141 144/144/138
f 147/147/141 146/146/140 148/148/142
f 149/149/143 148/148/142 146/146/140
f 148/148/142 149/149/143 150/150/144
f 151/151/145 152/152/145 153/153/146
f 153/153/146 154/154/147 151/151/145
f 154/154/147 153/153/146 155/155/148
f 156/156/149 155/155/148 153/153/146
f 155/155/148 156/156/149 157/157/150
f 157/157/150 158/158/151 155/155/148
f 158/158/151 157/157/150 159/159/152
f 160/160/153 159/159/152 157/157/150
f 159/159/152 160/160/153 161/161/154
f 161/161/154 162/162/155 159/159/152
f 162/162/155 161/161/154 163/163/156
f 164/164/157 163/163/156 161/161/154
f 163/163/156 164/164/157 165/165/158
f 166/166/159 167/167/160 168/168/161
f 168/168/161 169/169/162 166/166/159
f 169/169/162 168/168/161 170/170/163
f 171/171/163 170/170/163 168/168/161
f 170/170/163 171/171/163 172/172/164
f 172/172/164 173/173/165 170/170/163
f 173/173/165 172/172/164 174/174/166
f 175/175/167 174/174/166 172/172/164
f 174/174/166 175/175/167 176/176/168
f 176/176/168 177/177/169 174/174/166
f 177/177/169 176/176/168 178/178/170
f 179/179/171 178/178/170 176/176/168
f 178/178/170 179/179/171 180/180/172
f 181/181/173 182/182/174 183/183/175
f 183/183/175 184/184/176 181/181/173
f 184/184/176 183/183/175 185/185/177
f 186/186/178 185/185/177 183/183/175
f 185/185/177 186/186/178 187/187/179
f 187/187/179 188/188/180 185/185/177
f 188/188/180 187/187/179 189/189/181
f 190/190/182 189/189/181 187/187/179
f 189/189/181 190/190/182 191/191/183
f 191/191/183 192/192/184 189/189/181
f 192/192/184 191/191/183 193/193/185
f 194/194/186 193/193/185 191/191/183
f 193/193/185 194/194/186 195/195/187
f 196/196/188 197/197/189 198/198/190
f 198/198/190 199/199/191 196/196/188
f 199/199/191 198/198/190 200/200/192
f 201/201/193 200/200/192 198/198/190
f 200/200/192 201/201/193 202/202/194
f 202/202/194 203/203/195 200/200/192
f 203/203/195 202/202/194 204/204/196
f 205/205/197 204/204/196 202/202/194
f 204/204/196 205/205/197 206/206/198
f 206/206/198 207/207/199 204/204/196
f 207/207/199 206/206/198 208/208/200
f 209/209/201 208/208/200 206/206/198
f 208/208/200 209/209/201 210/210/202
f 211/211/203 212/212/204 213/213/205
f 213/213/205 214/214/206 211/211/203
f 214/214/206 213/213/205 215/215/207
f 216/216/208 215/215/207 213/213/205
f 215/215/207 216/216/208 217/217/209
f 217/217/209 218/218/210 215/215/207
f 218/218/210 217/217/209 219/219/211
f 220/220/212 219/219/211 217/217/209
f 219/219/211 220/220/212 221/221/213
f 221/221/213 222/222/214 219/219/211
f 222/222/214 221/221/213 223/223/215
f 224/224/216 223/223/215 221/221/213
f 223/223/215 224/224/216 225/225/217
