# Blender v2.93.0 OBJ File: ''
# www.blender.org
mtllib Reeds01-08.mtl
o Reeds01-08
v 0.021320 -0.009320 -0.002040
v -0.021900 -0.005440 -0.000790
v -0.013930 0.112850 0.036030
v 0.040840 0.105890 0.037020
v 0.066610 0.213280 0.095860
v 0.005200 0.224150 0.093170
v 0.031440 0.329480 0.171680
v 0.099800 0.313560 0.174700
v 0.135450 0.398630 0.264870
v 0.065480 0.417120 0.262170
v 0.115690 0.508920 0.393430
v 0.180990 0.490250 0.394400
v 0.236220 0.567300 0.547760
v 0.177640 0.584070 0.549730
v 0.272480 0.632650 0.718250
v 0.016020 -0.007410 0.024200
v -0.024710 -0.007270 0.034230
v -0.032730 0.110580 0.044720
v 0.019610 0.112480 0.034630
v 0.018870 0.230420 0.067390
v -0.040880 0.227120 0.074680
v -0.053420 0.343330 0.125950
v 0.014450 0.346640 0.123400
v 0.005200 0.449810 0.196630
v -0.064690 0.447150 0.192130
v -0.080570 0.565060 0.297250
v -0.016350 0.564550 0.311020
v -0.043140 0.666230 0.454920
v -0.097620 0.672400 0.433290
v -0.094480 0.753480 0.606430
v -0.018020 -0.007990 0.027770
v -0.020930 0.000640 -0.004890
v -0.076140 0.092980 0.022260
v -0.069660 0.080660 0.067190
v -0.136770 0.159420 0.113710
v -0.147720 0.175540 0.058720
v -0.232810 0.243820 0.108230
v -0.218320 0.225440 0.167410
v -0.308880 0.274880 0.223440
v -0.325750 0.294450 0.164760
v -0.449830 0.333660 0.243420
v -0.432870 0.313950 0.298190
v -0.593380 0.327180 0.394500
v -0.611460 0.348130 0.345150
v -0.728890 0.323900 0.449020
v 0.002970 -0.007320 0.014910
v -0.005290 -0.002010 -0.012640
v -0.040230 0.070400 0.011230
v -0.030950 0.061140 0.046030
v -0.079300 0.115550 0.087850
v -0.089490 0.129280 0.049510
v -0.153240 0.171870 0.098890
v -0.140760 0.152860 0.140130
v -0.207180 0.168530 0.194980
v -0.221240 0.190610 0.154250
v -0.311020 0.182580 0.227940
v -0.295710 0.159860 0.263950
v -0.387470 0.116200 0.336120
v -0.403950 0.137380 0.305820
v -0.482100 0.052890 0.392180
v -0.030410 -0.005530 0.026400
v -0.027590 -0.004780 -0.013780
v -0.038070 0.109700 -0.015860
v -0.044480 0.108480 0.033400
v -0.071110 0.222690 0.043290
v -0.059090 0.226150 -0.015410
v -0.091990 0.344020 -0.009900
v -0.110930 0.337590 0.053190
v -0.162930 0.447410 0.064630
v -0.137030 0.457080 0.002890
v -0.210840 0.592300 0.024780
v -0.240570 0.578930 0.073740
v -0.340510 0.709450 0.086830
v -0.309610 0.724860 0.053110
v -0.444640 0.838620 0.094750
v -0.024320 -0.001220 0.007130
v -0.024540 -0.005420 -0.023360
v -0.067590 0.064500 -0.040570
v -0.069900 0.071220 -0.001530
v -0.124080 0.138970 -0.013220
v -0.118980 0.132030 -0.059450
v -0.177450 0.197260 -0.080350
v -0.187030 0.203930 -0.029700
v -0.251670 0.262030 -0.049670
v -0.239660 0.258810 -0.100090
v -0.321270 0.333080 -0.124260
v -0.337180 0.332570 -0.078720
v -0.430290 0.406730 -0.110370
v -0.411560 0.412180 -0.149820
v -0.519030 0.492200 -0.160290
v -0.024740 -0.006330 -0.016260
v 0.005740 -0.001260 -0.021230
v -0.012250 0.067160 -0.063040
v -0.048910 0.060700 -0.055370
v -0.080470 0.116380 -0.109610
v -0.039440 0.124460 -0.120310
v -0.075150 0.167260 -0.190730
v -0.119060 0.157580 -0.176540
v -0.157970 0.182060 -0.251370
v -0.115080 0.191740 -0.266170
v -0.170880 0.198690 -0.365420
v -0.206830 0.189910 -0.351910
v -0.265820 0.169580 -0.463850
v -0.231150 0.179240 -0.477500
v -0.304450 0.133700 -0.579060
v -0.014520 -0.002640 0.008720
v 0.012100 -0.005670 -0.016350
v -0.003980 0.084390 -0.057100
v -0.040000 0.089990 -0.026920
v -0.069380 0.179510 -0.071450
v -0.025600 0.173320 -0.105930
v -0.052240 0.259860 -0.163760
v -0.101900 0.267620 -0.127520
v -0.134150 0.346740 -0.190350
v -0.084530 0.340120 -0.226780
v -0.131190 0.431800 -0.314010
v -0.177660 0.439040 -0.281000
v -0.229580 0.526480 -0.387450
v -0.187640 0.518910 -0.417920
v -0.271930 0.601960 -0.524590
v -0.006380 -0.003190 -0.023350
v 0.022130 -0.004090 -0.023840
v 0.029270 0.075760 -0.035400
v -0.005800 0.078070 -0.033940
v -0.003240 0.159810 -0.051910
v 0.039040 0.156390 -0.054380
v 0.049570 0.238340 -0.079380
v 0.003020 0.242850 -0.076410
v 0.010620 0.324340 -0.104800
v 0.058140 0.319050 -0.107500
v 0.068480 0.420590 -0.145240
v 0.026950 0.425080 -0.143660
v 0.045260 0.532640 -0.187130
v 0.079500 0.528960 -0.186930
v 0.078450 0.642050 -0.231460
v -0.005660 -0.003850 -0.014100
v 0.013660 -0.002860 0.007300
v 0.049450 0.079040 -0.021330
v 0.021590 0.078800 -0.050080
v 0.057970 0.158410 -0.092300
v 0.094130 0.157290 -0.058270
v 0.143500 0.231490 -0.105470
v 0.102320 0.234930 -0.140520
v 0.152410 0.305500 -0.190850
v 0.195720 0.299490 -0.158080
v 0.263360 0.379020 -0.229800
v 0.221150 0.389010 -0.257680
v 0.309680 0.487210 -0.343000
v 0.351120 0.473160 -0.322360
v 0.398680 0.554430 -0.403000
v -0.007000 -0.002780 -0.010120
v 0.014550 -0.003860 0.004590
v 0.030920 0.067540 -0.003370
v 0.004730 0.070550 -0.021810
v 0.030350 0.139780 -0.043820
v 0.061700 0.134740 -0.021460
v 0.104870 0.194800 -0.049870
v 0.070630 0.202200 -0.074420
v 0.120840 0.253260 -0.111770
v 0.155360 0.243560 -0.086940
v 0.228360 0.288120 -0.141840
v 0.198500 0.298980 -0.162640
v 0.290130 0.326470 -0.222800
v 0.313910 0.314870 -0.206490
v 0.398230 0.327320 -0.281780
v 0.016220 -0.003820 -0.014480
v 0.016650 -0.003990 0.016110
v 0.030100 0.081910 0.020470
v 0.028130 0.083000 -0.017190
v 0.050820 0.169660 -0.019800
v 0.054970 0.167890 0.025560
v 0.091520 0.253180 0.029760
v 0.085140 0.256070 -0.020010
v 0.129440 0.337810 -0.019470
v 0.137450 0.333520 0.031070
v 0.208010 0.427440 0.031980
v 0.199300 0.432320 -0.011710
v 0.288990 0.522620 -0.002380
v 0.297050 0.517090 0.033160
v 0.398370 0.599420 0.022300
v 0.000950 -0.001810 -0.012390
v 0.006080 -0.005780 0.015140
v 0.033870 0.060620 0.026610
v 0.028050 0.067690 -0.006460
v 0.070480 0.131210 0.004830
v 0.076900 0.121020 0.041850
v 0.134080 0.173060 0.060130
v 0.126650 0.186410 0.020350
v 0.192320 0.228550 0.041790
v 0.199080 0.212310 0.079560
v 0.289840 0.246220 0.104440
v 0.284340 0.263180 0.074190
v 0.393270 0.282550 0.109380
v 0.398080 0.262450 0.136090
v 0.505920 0.270920 0.157700
v 0.016420 -0.003500 0.000500
v -0.002960 -0.003820 0.021200
v 0.004440 0.085420 0.040720
v 0.029700 0.087860 0.010670
v 0.054210 0.175500 0.041620
v 0.024940 0.169810 0.080190
v 0.060640 0.243870 0.135550
v 0.090430 0.253760 0.092770
v 0.134730 0.313990 0.160320
v 0.106790 0.300100 0.203560
v 0.175450 0.342100 0.301140
v 0.200160 0.360480 0.262200
v 0.288410 0.367630 0.399630
v 0.267680 0.344660 0.433590
v 0.347960 0.322310 0.519710
v 0.011880 -0.002300 -0.013750
v -0.013140 -0.005420 0.014260
v -0.003950 0.086780 0.043850
v 0.023150 0.093290 0.012290
v 0.039100 0.184800 0.055560
v 0.009740 0.174210 0.091910
v 0.029360 0.252270 0.154640
v 0.060480 0.268390 0.113060
v 0.085830 0.342740 0.187400
v 0.057550 0.322110 0.229820
v 0.099120 0.389130 0.335710
v 0.119940 0.413080 0.297580
v 0.162230 0.462240 0.431920
v 0.148980 0.434400 0.464580
v 0.206300 0.465080 0.593670
vt 0.166620 0.012430
vt 0.208650 0.012690
vt 0.214980 0.132210
vt 0.161510 0.132420
vt 0.157530 0.254080
vt 0.217990 0.253820
vt 0.221930 0.382080
vt 0.153770 0.381760
vt 0.152070 0.506260
vt 0.222350 0.505980
vt 0.221660 0.664060
vt 0.155860 0.665300
vt 0.159330 0.837320
vt 0.218280 0.835530
vt 0.187480 1.014120
vt 0.166620 0.012430
vt 0.208650 0.012690
vt 0.214980 0.132210
vt 0.161510 0.132420
vt 0.157530 0.254080
vt 0.217990 0.253820
vt 0.221930 0.382080
vt 0.153770 0.381760
vt 0.152070 0.506260
vt 0.222350 0.505980
vt 0.221660 0.664060
vt 0.155860 0.665300
vt 0.159330 0.837320
vt 0.218280 0.835530
vt 0.187480 1.014120
vt 0.544930 0.010230
vt 0.581240 0.010520
vt 0.587800 0.128420
vt 0.537410 0.128650
vt 0.532500 0.250890
vt 0.595010 0.250580
vt 0.597460 0.376950
vt 0.529250 0.377470
vt 0.529080 0.503020
vt 0.597880 0.502730
vt 0.595520 0.660820
vt 0.530560 0.662050
vt 0.532590 0.858460
vt 0.593530 0.858380
vt 0.561600 1.011930
vt 0.166620 0.012430
vt 0.208650 0.012690
vt 0.214980 0.132210
vt 0.161510 0.132420
vt 0.157530 0.254080
vt 0.217990 0.253820
vt 0.221930 0.382080
vt 0.153770 0.381760
vt 0.152070 0.506260
vt 0.222350 0.505980
vt 0.221660 0.664060
vt 0.155860 0.665300
vt 0.159330 0.837320
vt 0.218280 0.835530
vt 0.187480 1.014120
vt 0.415700 0.011400
vt 0.457420 0.011340
vt 0.462680 0.130080
vt 0.411220 0.130830
vt 0.406000 0.252810
vt 0.468160 0.252230
vt 0.471650 0.378610
vt 0.403080 0.379180
vt 0.400360 0.505210
vt 0.470460 0.504390
vt 0.466910 0.663550
vt 0.405750 0.663710
vt 0.411900 0.834300
vt 0.462280 0.833940
vt 0.438990 1.010320
vt 0.041110 0.010300
vt 0.084220 0.011630
vt 0.089480 0.129540
vt 0.033860 0.130290
vt 0.027380 0.252270
vt 0.093290 0.251690
vt 0.096790 0.378070
vt 0.023930 0.380250
vt 0.024420 0.504130
vt 0.097200 0.503850
vt 0.095800 0.661940
vt 0.028200 0.663170
vt 0.031670 0.834290
vt 0.093320 0.833400
vt 0.062520 1.017820
vt 0.290040 0.011710
vt 0.335270 0.011630
vt 0.340530 0.129540
vt 0.285610 0.130290
vt 0.281950 0.252270
vt 0.344340 0.251690
vt 0.346070 0.379130
vt 0.277800 0.378490
vt 0.278640 0.504130
vt 0.345780 0.503850
vt 0.341210 0.661940
vt 0.284190 0.662460
vt 0.284130 0.839580
vt 0.339780 0.838340
vt 0.313560 1.013590
vt 0.041110 0.010300
vt 0.084220 0.011630
vt 0.089480 0.129540
vt 0.033860 0.130290
vt 0.027380 0.252270
vt 0.093290 0.251690
vt 0.096790 0.378070
vt 0.023930 0.380250
vt 0.024420 0.504130
vt 0.097200 0.503850
vt 0.095800 0.661940
vt 0.028200 0.663170
vt 0.031670 0.834290
vt 0.093320 0.833400
vt 0.062520 1.017820
vt 0.415700 0.011400
vt 0.457420 0.011340
vt 0.462680 0.130080
vt 0.411220 0.130830
vt 0.406000 0.252810
vt 0.468160 0.252230
vt 0.471650 0.378610
vt 0.403080 0.379180
vt 0.400360 0.505210
vt 0.470460 0.504390
vt 0.466910 0.663550
vt 0.405750 0.663710
vt 0.411900 0.834300
vt 0.462280 0.833940
vt 0.438990 1.010320
vt 0.544930 0.010230
vt 0.581240 0.010520
vt 0.587800 0.128420
vt 0.537410 0.128650
vt 0.532500 0.250890
vt 0.595010 0.250580
vt 0.597460 0.376950
vt 0.529250 0.377470
vt 0.529080 0.503020
vt 0.597880 0.502730
vt 0.595520 0.660820
vt 0.530560 0.662050
vt 0.532590 0.858460
vt 0.593530 0.858380
vt 0.561600 1.011930
vt 0.415700 0.011400
vt 0.457420 0.011340
vt 0.462680 0.130080
vt 0.411220 0.130830
vt 0.406000 0.252810
vt 0.468160 0.252230
vt 0.471650 0.378610
vt 0.403080 0.379180
vt 0.400360 0.505210
vt 0.470460 0.504390
vt 0.466910 0.663550
vt 0.405750 0.663710
vt 0.411900 0.834300
vt 0.462280 0.833940
vt 0.438990 1.010320
vt 0.415700 0.011400
vt 0.457420 0.011340
vt 0.462680 0.130080
vt 0.411220 0.130830
vt 0.406000 0.252810
vt 0.468160 0.252230
vt 0.471650 0.378610
vt 0.403080 0.379180
vt 0.400360 0.505210
vt 0.470460 0.504390
vt 0.466910 0.663550
vt 0.405750 0.663710
vt 0.411900 0.834300
vt 0.462280 0.833940
vt 0.438990 1.010320
vt 0.290040 0.011710
vt 0.335270 0.011630
vt 0.340530 0.129540
vt 0.285610 0.130290
vt 0.281950 0.252270
vt 0.344340 0.251690
vt 0.346070 0.379130
vt 0.277800 0.378490
vt 0.278640 0.504130
vt 0.345780 0.503850
vt 0.341210 0.661940
vt 0.284190 0.662460
vt 0.284130 0.839580
vt 0.339780 0.838340
vt 0.313560 1.013590
vt 0.544930 0.010230
vt 0.581240 0.010520
vt 0.587800 0.128420
vt 0.537410 0.128650
vt 0.532500 0.250890
vt 0.595010 0.250580
vt 0.597460 0.376950
vt 0.529250 0.377470
vt 0.529080 0.503020
vt 0.597880 0.502730
vt 0.595520 0.660820
vt 0.530560 0.662050
vt 0.532590 0.858460
vt 0.593530 0.858380
vt 0.561600 1.011930
vt 0.791070 0.008730
vt 0.836510 0.010040
vt 0.838350 0.128490
vt 0.787560 0.128170
vt 0.785370 0.250680
vt 0.843240 0.250640
vt 0.847800 0.373800
vt 0.781920 0.374370
vt 0.780270 0.502540
vt 0.847150 0.502260
vt 0.843600 0.660880
vt 0.782980 0.660510
vt 0.784840 0.833240
vt 0.840580 0.833420
vt 0.812460 1.012480
vn -0.0072 0.2334 -0.9724
vn -0.0071 0.2333 -0.9724
vn 0.0641 0.3631 -0.9295
vn 0.0642 0.3633 -0.9295
vn 0.1272 0.4792 -0.8684
vn 0.1271 0.4790 -0.8686
vn 0.1803 0.5781 -0.7958
vn 0.1801 0.5779 -0.7960
vn 0.2171 0.6562 -0.7227
vn 0.2170 0.6560 -0.7229
vn 0.2415 0.7372 -0.6310
vn 0.2416 0.7377 -0.6304
vn 0.2379 0.8107 -0.5350
vn 0.2381 0.8100 -0.5360
vn 0.1991 0.8740 -0.4434
vn -0.2390 0.0061 -0.9710
vn -0.1935 0.1464 -0.9701
vn -0.1934 0.1466 -0.9701
vn -0.1350 0.2916 -0.9470
vn -0.1351 0.2913 -0.9470
vn -0.0595 0.4335 -0.8992
vn -0.0597 0.4332 -0.8993
vn 0.0280 0.5559 -0.8308
vn 0.0278 0.5557 -0.8309
vn 0.1593 0.6805 -0.7152
vn 0.1604 0.6813 -0.7142
vn 0.3268 0.7626 -0.5582
vn 0.3250 0.7621 -0.5600
vn 0.5148 0.7693 -0.3785
vn 0.9029 0.4285 0.0327
vn 0.9029 0.4285 0.0326
vn 0.8315 0.5545 0.0332
vn 0.8314 0.5547 0.0332
vn 0.7419 0.6684 0.0533
vn 0.7421 0.6682 0.0533
vn 0.6425 0.7611 0.0896
vn 0.6421 0.7614 0.0898
vn 0.5424 0.8287 0.1381
vn 0.5426 0.8286 0.1380
vn 0.4245 0.8805 0.2110
vn 0.4236 0.8808 0.2116
vn 0.2997 0.9007 0.3146
vn 0.2998 0.9007 0.3146
vn 0.2267 0.8881 0.4000
vn 0.9022 0.3839 -0.1964
vn 0.9023 0.3839 -0.1963
vn 0.8338 0.5471 -0.0739
vn 0.8337 0.5473 -0.0736
vn 0.7322 0.6783 0.0618
vn 0.7325 0.6780 0.0615
vn 0.6076 0.7677 0.2036
vn 0.6079 0.7676 0.2033
vn 0.4783 0.8123 0.3338
vn 0.4787 0.8122 0.3334
vn 0.3115 0.8189 0.4820
vn 0.3102 0.8188 0.4831
vn 0.1485 0.7829 0.6041
vn 0.1501 0.7835 0.6030
vn 0.0082 0.7324 0.6808
vn 0.9955 0.0623 0.0710
vn 0.9818 0.1376 0.1310
vn 0.9817 0.1380 0.1314
vn 0.9546 0.2121 0.2093
vn 0.9547 0.2119 0.2089
vn 0.9109 0.2776 0.3053
vn 0.9107 0.2778 0.3057
vn 0.8491 0.3266 0.4152
vn 0.8495 0.3263 0.4146
vn 0.7449 0.3543 0.5654
vn 0.7448 0.3543 0.5654
vn 0.6008 0.3283 0.7289
vn 0.6010 0.3284 0.7286
vn 0.4257 0.2262 0.8761
vn 0.8786 0.4722 -0.0715
vn 0.8786 0.4722 -0.0711
vn 0.8296 0.5564 -0.0475
vn 0.8293 0.5569 -0.0473
vn 0.7765 0.6300 -0.0101
vn 0.7768 0.6297 -0.0103
vn 0.7246 0.6878 0.0436
vn 0.7238 0.6886 0.0440
vn 0.6766 0.7275 0.1138
vn 0.6767 0.7274 0.1137
vn 0.6233 0.7490 0.2249
vn 0.6228 0.7490 0.2260
vn 0.5654 0.7367 0.3710
vn 0.5657 0.7369 0.3702
vn 0.4890 0.6818 0.5441
vn 0.0749 0.4311 0.8992
vn 0.0589 0.6017 0.7966
vn 0.0587 0.6026 0.7959
vn 0.0189 0.7494 0.6619
vn 0.0191 0.7489 0.6624
vn -0.0379 0.8587 0.5111
vn -0.0376 0.8582 0.5120
vn -0.1032 0.9258 0.3636
vn -0.1031 0.9257 0.3638
vn -0.1916 0.9625 0.1922
vn -0.1919 0.9625 0.1917
vn -0.2922 0.9558 0.0326
vn -0.2915 0.9560 0.0335
vn -0.3787 0.9232 -0.0653
vn 0.6576 0.3765 0.6525
vn 0.6573 0.3766 0.6528
vn 0.6141 0.4490 0.6490
vn 0.6139 0.4494 0.6490
vn 0.5729 0.5216 0.6323
vn 0.5731 0.5212 0.6324
vn 0.5361 0.5895 0.6042
vn 0.5356 0.5907 0.6036
vn 0.5058 0.6508 0.5663
vn 0.5058 0.6507 0.5664
vn 0.4779 0.7175 0.5068
vn 0.4777 0.7179 0.5063
vn 0.4613 0.7769 0.4286
vn 0.4613 0.7766 0.4290
vn 0.4602 0.8235 0.3319
vn 0.0197 0.0903 0.9957
vn 0.0525 0.1675 0.9845
vn 0.0527 0.1679 0.9844
vn 0.0766 0.2308 0.9700
vn 0.0766 0.2307 0.9700
vn 0.0896 0.2763 0.9569
vn 0.0896 0.2764 0.9569
vn 0.0897 0.3035 0.9486
vn 0.0897 0.3034 0.9486
vn 0.0713 0.3165 0.9459
vn 0.0712 0.3165 0.9459
vn 0.0300 0.3231 0.9459
vn 0.0301 0.3231 0.9459
vn -0.0355 0.3227 0.9458
vn -0.6813 0.4257 0.5955
vn -0.6812 0.4257 0.5956
vn -0.6148 0.5214 0.5917
vn -0.6146 0.5216 0.5917
vn -0.5367 0.6027 0.5906
vn -0.5369 0.6025 0.5906
vn -0.4514 0.6631 0.5970
vn -0.4511 0.6634 0.5971
vn -0.3639 0.7010 0.6134
vn -0.3641 0.7009 0.6133
vn -0.2540 0.7171 0.6490
vn -0.2531 0.7171 0.6493
vn -0.1173 0.6899 0.7143
vn -0.1174 0.6899 0.7143
vn -0.0065 0.6385 0.7696
vn -0.5563 0.1116 0.8234
vn -0.5247 0.2977 0.7975
vn -0.5244 0.2987 0.7973
vn -0.4547 0.4705 0.7562
vn -0.4550 0.4700 0.7564
vn -0.3547 0.6126 0.7063
vn -0.3543 0.6131 0.7061
vn -0.2360 0.7173 0.6556
vn -0.2367 0.7168 0.6559
vn -0.0754 0.7960 0.6006
vn -0.0753 0.7960 0.6005
vn 0.0968 0.8222 0.5609
vn 0.0965 0.8222 0.5610
vn 0.2590 0.7953 0.5481
vn -0.9959 0.0888 0.0143
vn -0.9801 0.1901 0.0570
vn -0.9800 0.1906 0.0572
vn -0.9510 0.2926 0.0997
vn -0.9512 0.2922 0.0995
vn -0.9102 0.3890 0.1419
vn -0.9101 0.3893 0.1420
vn -0.8603 0.4761 0.1825
vn -0.8606 0.4756 0.1823
vn -0.7882 0.5706 0.2306
vn -0.7881 0.5707 0.2306
vn -0.7028 0.6546 0.2787
vn -0.7029 0.6544 0.2787
vn -0.6105 0.7226 0.3243
vn -0.9438 0.2532 0.2124
vn -0.9438 0.2531 0.2124
vn -0.8805 0.4066 0.2439
vn -0.8801 0.4073 0.2442
vn -0.7891 0.5392 0.2942
vn -0.7895 0.5388 0.2939
vn -0.6820 0.6368 0.3598
vn -0.6826 0.6363 0.3594
vn -0.5754 0.6934 0.4337
vn -0.5755 0.6934 0.4336
vn -0.4527 0.7138 0.5344
vn -0.4523 0.7138 0.5347
vn -0.3445 0.6779 0.6494
vn -0.3451 0.6784 0.6486
vn -0.2779 0.5933 0.7555
vn -0.7283 0.0807 -0.6805
vn -0.7284 0.0807 -0.6804
vn -0.7477 0.2763 -0.6038
vn -0.7477 0.2768 -0.6036
vn -0.7428 0.4610 -0.4854
vn -0.7429 0.4606 -0.4858
vn -0.7173 0.6127 -0.3319
vn -0.7171 0.6132 -0.3313
vn -0.6777 0.7182 -0.1575
vn -0.6778 0.7181 -0.1579
vn -0.6197 0.7815 0.0722
vn -0.6192 0.7817 0.0740
vn -0.5529 0.7582 0.3456
vn -0.5529 0.7582 0.3455
vn -0.5187 0.6751 0.5246
vn -0.7421 0.1955 -0.6412
vn -0.7422 0.1955 -0.6410
vn -0.7521 0.3137 -0.5796
vn -0.7520 0.3134 -0.5798
vn -0.7651 0.4191 -0.4888
vn -0.7651 0.4191 -0.4889
vn -0.7816 0.4987 -0.3746
vn -0.7817 0.4989 -0.3741
vn -0.8028 0.5466 -0.2381
vn -0.8028 0.5466 -0.2384
vn -0.8339 0.5486 -0.0599
vn -0.8339 0.5487 -0.0603
vn -0.8722 0.4734 0.1233
vn -0.8722 0.4733 0.1234
vn -0.9116 0.3115 0.2681
usemtl Leaves_v1x8.007
s 1
f 1/1/1 2/2/2 3/3/3
f 3/3/3 4/4/4 1/1/1
f 4/4/4 3/3/3 5/5/5
f 6/6/6 5/5/5 3/3/3
f 5/5/5 6/6/6 7/7/7
f 7/7/7 8/8/8 5/5/5
f 8/8/8 7/7/7 9/9/9
f 10/10/10 9/9/9 7/7/7
f 9/9/9 10/10/10 11/11/11
f 11/11/11 12/12/12 9/9/9
f 12/12/12 11/11/11 13/13/13
f 14/14/14 13/13/13 11/11/11
f 13/13/13 14/14/14 15/15/15
f 16/16/16 17/17/16 18/18/17
f 18/18/17 19/19/18 16/16/16
f 19/19/18 18/18/17 20/20/19
f 21/21/20 20/20/19 18/18/17
f 20/20/19 21/21/20 22/22/21
f 22/22/21 23/23/22 20/20/19
f 23/23/22 22/22/21 24/24/23
f 25/25/24 24/24/23 22/22/21
f 24/24/23 25/25/24 26/26/25
f 26/26/25 27/27/26 24/24/23
f 27/27/26 26/26/25 28/28/27
f 29/29/28 28/28/27 26/26/25
f 28/28/27 29/29/28 30/30/29
f 31/31/30 32/32/31 33/33/32
f 33/33/32 34/34/33 31/31/30
f 34/34/33 33/33/32 35/35/34
f 36/36/35 35/35/34 33/33/32
f 35/35/34 36/36/35 37/37/36
f 37/37/36 38/38/37 35/35/34
f 38/38/37 37/37/36 39/39/38
f 40/40/39 39/39/38 37/37/36
f 39/39/38 40/40/39 41/41/40
f 41/41/40 42/42/41 39/39/38
f 42/42/41 41/41/40 43/43/42
f 44/44/43 43/43/42 41/41/40
f 43/43/42 44/44/43 45/45/44
f 46/46/45 47/47/46 48/48/47
f 48/48/47 49/49/48 46/46/45
f 49/49/48 48/48/47 50/50/49
f 51/51/50 50/50/49 48/48/47
f 50/50/49 51/51/50 52/52/51
f 52/52/51 53/53/52 50/50/49
f 53/53/52 52/52/51 54/54/53
f 55/55/54 54/54/53 52/52/51
f 54/54/53 55/55/54 56/56/55
f 56/56/55 57/57/56 54/54/53
f 57/57/56 56/56/55 58/58/57
f 59/59/58 58/58/57 56/56/55
f 58/58/57 59/59/58 60/60/59
f 61/61/60 62/62/60 63/63/61
f 63/63/61 64/64/62 61/61/60
f 64/64/62 63/63/61 65/65/63
f 66/66/64 65/65/63 63/63/61
f 65/65/63 66/66/64 67/67/65
f 67/67/65 68/68/66 65/65/63
f 68/68/66 67/67/65 69/69/67
f 70/70/68 69/69/67 67/67/65
f 69/69/67 70/70/68 71/71/69
f 71/71/69 72/72/70 69/69/67
f 72/72/70 71/71/69 73/73/71
f 74/74/72 73/73/71 71/71/69
f 73/73/71 74/74/72 75/75/73
f 76/76/74 77/77/75 78/78/76
f 78/78/76 79/79/77 76/76/74
f 79/79/77 78/78/76 80/80/78
f 81/81/79 80/80/78 78/78/76
f 80/80/78 81/81/79 82/82/80
f 82/82/80 83/83/81 80/80/78
f 83/83/81 82/82/80 84/84/82
f 85/85/83 84/84/82 82/82/80
f 84/84/82 85/85/83 86/86/84
f 86/86/84 87/87/85 84/84/82
f 87/87/85 86/86/84 88/88/86
f 89/89/87 88/88/86 86/86/84
f 88/88/86 89/89/87 90/90/88
f 91/91/89 92/92/89 93/93/90
f 93/93/90 94/94/91 91/91/89
f 94/94/91 93/93/90 95/95/92
f 96/96/93 95/95/92 93/93/90
f 95/95/92 96/96/93 97/97/94
f 97/97/94 98/98/95 95/95/92
f 98/98/95 97/97/94 99/99/96
f 100/100/97 99/99/96 97/97/94
f 99/99/96 100/100/97 101/101/98
f 101/101/98 102/102/99 99/99/96
f 102/102/99 101/101/98 103/103/100
f 104/104/101 103/103/100 101/101/98
f 103/103/100 104/104/101 105/105/102
f 106/106/103 107/107/104 108/108/105
f 108/108/105 109/109/106 106/106/103
f 109/109/106 108/108/105 110/110/107
f 111/111/108 110/110/107 108/108/105
f 110/110/107 111/111/108 112/112/109
f 112/112/109 113/113/110 110/110/107
f 113/113/110 112/112/109 114/114/111
f 115/115/112 114/114/111 112/112/109
f 114/114/111 115/115/112 116/116/113
f 116/116/113 117/117/114 114/114/111
f 117/117/114 116/116/113 118/118/115
f 119/119/116 118/118/115 116/116/113
f 118/118/115 119/119/116 120/120/117
f 121/121/118 122/122/118 123/123/119
f 123/123/119 124/124/120 121/121/118
f 124/124/120 123/123/119 125/125/121
f 126/126/122 125/125/121 123/123/119
f 125/125/121 126/126/122 127/127/123
f 127/127/123 128/128/124 125/125/121
f 128/128/124 127/127/123 129/129/125
f 130/130/126 129/129/125 127/127/123
f 129/129/125 130/130/126 131/131/127
f 131/131/127 132/132/128 129/129/125
f 132/132/128 131/131/127 133/133/129
f 134/134/130 133/133/129 131/131/127
f 133/133/129 134/134/130 135/135/131
f 136/136/132 137/137/133 138/138/134
f 138/138/134 139/139/135 136/136/132
f 139/139/135 138/138/134 140/140/136
f 141/141/137 140/140/136 138/138/134
f 140/140/136 141/141/137 142/142/138
f 142/142/138 143/143/139 140/140/136
f 143/143/139 142/142/138 144/144/140
f 145/145/141 144/144/140 142/142/138
f 144/144/140 145/145/141 146/146/142
f 146/146/142 147/147/143 144/144/140
f 147/147/143 146/146/142 148/148/144
f 149/149/145 148/148/144 146/146/142
f 148/148/144 149/149/145 150/150/146
f 151/151/147 152/152/147 153/153/148
f 153/153/148 154/154/149 151/151/147
f 154/154/149 153/153/148 155/155/150
f 156/156/151 155/155/150 153/153/148
f 155/155/150 156/156/151 157/157/152
f 157/157/152 158/158/153 155/155/150
f 158/158/153 157/157/152 159/159/154
f 160/160/155 159/159/154 157/157/152
f 159/159/154 160/160/155 161/161/156
f 161/161/156 162/162/157 159/159/154
f 162/162/157 161/161/156 163/163/158
f 164/164/159 163/163/158 161/161/156
f 163/163/158 164/164/159 165/165/160
f 166/166/161 167/167/161 168/168/162
f 168/168/162 169/169/163 166/166/161
f 169/169/163 168/168/162 170/170/164
f 171/171/165 170/170/164 168/168/162
f 170/170/164 171/171/165 172/172/166
f 172/172/166 173/173/167 170/170/164
f 173/173/167 172/172/166 174/174/168
f 175/175/169 174/174/168 172/172/166
f 174/174/168 175/175/169 176/176/170
f 176/176/170 177/177/171 174/174/168
f 177/177/171 176/176/170 178/178/172
f 179/179/173 178/178/172 176/176/170
f 178/178/172 179/179/173 180/180/174
f 181/181/175 182/182/176 183/183/177
f 183/183/177 184/184/178 181/181/175
f 184/184/178 183/183/177 185/185/179
f 186/186/180 185/185/179 183/183/177
f 185/185/179 186/186/180 187/187/181
f 187/187/181 188/188/182 185/185/179
f 188/188/182 187/187/181 189/189/183
f 190/190/184 189/189/183 187/187/181
f 189/189/183 190/190/184 191/191/185
f 191/191/185 192/192/186 189/189/183
f 192/192/186 191/191/185 193/193/187
f 194/194/188 193/193/187 191/191/185
f 193/193/187 194/194/188 195/195/189
f 196/196/190 197/197/191 198/198/192
f 198/198/192 199/199/193 196/196/190
f 199/199/193 198/198/192 200/200/194
f 201/201/195 200/200/194 198/198/192
f 200/200/194 201/201/195 202/202/196
f 202/202/196 203/203/197 200/200/194
f 203/203/197 202/202/196 204/204/198
f 205/205/199 204/204/198 202/202/196
f 204/204/198 205/205/199 206/206/200
f 206/206/200 207/207/201 204/204/198
f 207/207/201 206/206/200 208/208/202
f 209/209/203 208/208/202 206/206/200
f 208/208/202 209/209/203 210/210/204
f 211/211/205 212/212/206 213/213/207
f 213/213/207 214/214/208 211/211/205
f 214/214/208 213/213/207 215/215/209
f 216/216/210 215/215/209 213/213/207
f 215/215/209 216/216/210 217/217/211
f 217/217/211 218/218/212 215/215/209
f 218/218/212 217/217/211 219/219/213
f 220/220/214 219/219/213 217/217/211
f 219/219/213 220/220/214 221/221/215
f 221/221/215 222/222/216 219/219/213
f 222/222/216 221/221/215 223/223/217
f 224/224/218 223/223/217 221/221/215
f 223/223/217 224/224/218 225/225/219
